<?xml version="1.0" encoding="utf-8"?>
<!-- Generator: Adobe Illustrator 24.3.0, SVG Export Plug-In . SVG Version: 6.00 Build 0)  -->
<svg version="1.1" id="Layer_1" xmlns="http://www.w3.org/2000/svg" xmlns:xlink="http://www.w3.org/1999/xlink" x="0px" y="0px"
	 viewBox="0 0 1799 449.2" style="enable-background:new 0 0 1799 449.2;" xml:space="preserve">
<style type="text/css">
	.st0{fill:#B89B6A;}
</style>
<g>
	<path class="st0" d="M320.6,282.8c-25.9,15.4-51.5,21-78.6,4.7c-0.7,2-1.6,3.4-1.6,4.8c-0.3,19.3-0.8,38.7-0.6,58
		c0.1,14.6,3.2,17.8,17.7,20.9c5.9,1.3,11.7,2.8,17.7,3.4c7.8,0.9,11.3,4.4,10.4,12.5c-0.5,5-0.1,10.1-0.1,16h-10.7
		c-0.3-0.5-0.8-1.1-0.8-1.6c-0.5-22.9-0.5-22.9-23.2-26.8c-19.4-3.3-29-13.9-29.1-33.8c-0.2-27,0.1-53.9,0.6-80.9
		c0.3-14.4,4.4-18,18.9-19.1c11.1-0.8,22.1-2.3,33.1-3c6.3-0.4,9.5-3.5,9.6-9.4c0.3-11.7,0.4-23.4,0.4-35.1
		c0-7.4-3.8-10.9-11.4-10.6c-6,0.2-12.1-0.1-18.1-0.2c-25.1-0.6-33.1-8.1-33.8-32.7c-0.5-18.7-0.1-37.4-0.3-56
		c-0.1-9.1,3.6-15.2,12.4-18c24.5-7.7,48.9-7.2,72.3,3.3c6.5,2.9,12.8,10,15.6,16.7c5.2,12.5,7.8,26,11.3,39.2
		c3.7,14.1,12.6,19.6,26.1,14.4c3.2-1.2,6.7-7.1,6.7-10.8c0.3-30.7,0.1-61.5-0.4-92.2c-0.2-9.7-5.8-14.6-16.2-14.8
		c-14.2-0.3-28.5,0.3-42.7,0.3c-38.7-0.3-77.4-0.9-116.1-1c-26.9-0.1-53.9,0.5-80.8,0.3c-9-0.1-13,3.6-12.9,12.2
		c0.1,5.1,0.3,10.1,0.8,15.2c0.7,6.2,4.4,8.4,10.5,8.2c20.2-0.9,32.6,8.4,37.9,27.9l-34.3-5.3c-12.1-1.9-18.1-7.7-19-19.9
		c-0.8-10.7-0.9-21.5-0.8-32.3c0.2-11.7,2.5-13.6,14.3-13.6c63.1,0.1,126.2,0.3,189.4,0.5c20,0,40-0.3,59.9-0.2
		C373.9,24,381.9,32,382,51c0.2,34.9,0.4,69.8,0.6,104.7c0,3.1,0,6.3,0,9.5c-11.7,0-22.8,0.8-33.6-0.3c-9-0.9-14.2-7.7-16.5-16.4
		c-2.4-9.5-5.4-18.9-6.9-28.7c-2.9-18.6-14.9-27.8-32.1-29.8c-12.9-1.4-25.9-1.1-38.7,0.9c-13.4,2.1-20.2,15.7-15.6,28.4
		c0.8,2.3,4.2,4.1,6.9,5.1c11.3,4.1,23.1,7,34,11.9c34.8,15.6,57.3,41,57.1,80.9c-0.1,16.9-4.5,33.8-7.1,50.7
		c-3.2,20.6-9,40.9-5.3,62.2c2.6,15,14.3,27.2,28,28c9.7,0.6,12.5-2.4,11.1-12.3c-1-6.6,0.5-12.2,7.8-12.5s9.2,5.9,9.3,12
		c0.1,8.6-6.8,16.3-15.5,17.9c-19.6,3.6-38.9-9-44.6-28.4c-4.4-14.8-3.3-29.5-1.1-44.3C320,288.6,320.2,286.6,320.6,282.8z
		 M241.1,132.7c0,10.3-0.2,20.6,0.1,31c0.2,10.9,3,13.6,14.1,14.6c9.4,0.8,18.9,1.1,28.4,2.1c10.9,1.1,18.1,7.2,18.6,18
		c0.9,18.5,0.2,37.2,0.2,56.6c-4.7-0.3-8.4-0.5-12.1-0.7c-7.3-0.2-14.6-0.9-21.8-0.4c-8.1,0.6-10.9,6.4-6.1,12.5
		c11.6,14.8,37.6,23.6,55.8,5.2c10.8-11,11.1-25.1,12.8-38.8C338.9,172.5,295.8,136,241.1,132.7z M275.9,285.5
		c-13.2-4.7-18.6-16-23.7-28.9c-5.6,9.5-3.2,16.6,1.1,23C258.6,287.4,266.6,288.2,275.9,285.5z"/>
	<path class="st0" d="M108.2,381.1c16,1.2,29.4-2.1,41.4-11.2c2.5-1.7,5.5-2.7,8.6-2.8c9.5-0.3,19,0.2,28.6-0.2
		c15.3-0.6,29.5,0.9,43.6,9c9.9,5.6,22.9,5.7,35.2,8.3V404H108.2V381.1z"/>
	<path class="st0" d="M150.1,186.8l-5.7-7.3c-9.9,10.9-15.3,22.5-16.1,36.9c33.5-11.4,64.8-66.3,53.4-97.5
		c-16.7,10.6-27.4-10.9-45.1-6.1c8.7-13.6,21-11.3,31-12.9c-3.8-15.2-7.5-30-11.4-45.8c19.3,5.5,28,20.3,36.1,34.2l24.3-23.5
		l2.3,1.6c-2.5,10-4.3,20.3-7.8,30c-1.6,4.4-5.9,9.9-9.9,10.7c-10.5,2.2-9.9,8.7-9.9,16.7c-0.1,27.2-10.3,50.8-28.2,70.7
		c-8.8,9.8-20,17.4-29.5,26.6c-3.2,3.1-6.1,8.1-6.6,12.5c-2.1,20.5,2.2,40.3,10.1,59.3l-2.9,1c-3.5-8.9-9.4-17.6-10.1-26.6
		c-1.7-20.5-1.6-41,0.1-61.5c0.8-8.7,7.2-17.4,12.5-25.1c6.5-9.3,10-18.8,9.9-30.1c0-5.1,1.1-10.2,3.4-14.8L150.1,186.8z"/>
	<path class="st0" d="M301.4,426c-61.7,0-122.2,0.1-182.7-0.2c-3.6,0-7.3-2.8-10.9-4.4c0.3-0.9,0.5-1.8,0.8-2.7c6.5,0,13,0,19.5,0
		c51.9,0.4,103.9,0.7,155.9,1.4c7.7,0.1,12-1,11.5-10c-0.4-6.5,0.9-13.1,1.4-19.7l2.5-0.1C300,402.4,300.7,414.4,301.4,426z"/>
	<path class="st0" d="M150.3,219.2c0,3.6,0,7.2,0,10.8c-0.2,39.7-0.5,79.3-0.7,119c-0.1,13.6-2.6,17.1-16.1,20.7
		c-8.6,2.3-17.3,3.9-26.1,4.9c-5.3,0.6-7.3,2.4-7,7.6c0.3,6.8,0.1,13.6,0.1,20.4l-3,0.1V372c10.3-1.7,20.9-3.2,31.4-5.3
		c14-2.7,16.3-5.6,16.4-19.6c0.4-39.3,0.6-78.7,0.8-118c0-3.3,0-6.6,0-9.9L150.3,219.2z"/>
	<polygon class="st0" points="259,249.1 233.3,262.6 254.9,288.3 277.1,292 283.1,283.7 267.5,278.2 256.9,264.2 	"/>
	<path class="st0" d="M469.9,290.6L509,391.4c1.5,3.9,3.2,6.5,5.1,8c1.4,1.3,3.2,2.1,5.1,2.3v3.2c-3.2-0.2-7-0.3-11.3-0.4
		c-4.4-0.1-8.7-0.1-13.1-0.1c-4.9,0-9.6,0-14,0.1c-4.4,0.1-7.9,0.2-10.5,0.4v-3.2c5.5-0.2,8.9-1.2,10.4-2.8c1.4-1.7,1.1-5.2-1-10.7
		l-27.4-74.9l2.9-4.2l-24.5,63.8c-2.4,5.9-3.8,10.7-4.3,14.5c-0.5,3.8-0.2,6.7,0.8,8.7c1,2,2.8,3.6,5,4.3c2.7,0.9,5.5,1.3,8.3,1.4
		v3.2c-3.5-0.2-6.9-0.3-10.1-0.4c-3.2-0.1-6.5-0.1-9.9-0.1c-2.4,0-4.6,0-6.7,0.1c-1.9,0-3.7,0.2-5.6,0.4v-3.2
		c2.2-0.4,4.6-1.9,6.9-4.3c2.4-2.5,4.7-6.6,6.9-12.5l36.7-94.2c1.7,0.1,3.6,0.2,5.6,0.2S468.2,290.8,469.9,290.6z M481.2,358.6v3.2
		h-48l1.6-3.2L481.2,358.6z"/>
	<path class="st0" d="M554.7,278.9v111c0,4.5,0.8,7.6,2.3,9.2c1.6,1.6,4.2,2.4,8,2.4v3.4c-2-0.1-5.1-0.2-9.2-0.4
		c-4.1-0.2-8.2-0.2-12.4-0.2c-4.2,0-8.4,0.1-12.6,0.2s-7.4,0.3-9.6,0.4v-3.4c3.8,0,6.4-0.8,8-2.4c1.5-1.6,2.3-4.7,2.3-9.2v-91.7
		c0-4.8-0.7-8.4-2.2-10.7c-1.5-2.3-4.2-3.5-8.2-3.4v-3.4c3.4,0.3,6.8,0.5,10,0.5c4.4,0,8.6-0.2,12.5-0.6
		C547.4,280.3,551.1,279.7,554.7,278.9z"/>
	<path class="st0" d="M659.7,291c-0.4,4.8-0.7,9.5-0.9,14c-0.2,4.5-0.2,8-0.2,10.5s0.1,4.8,0.2,6.8c0.1,2.1,0.2,3.9,0.3,5.4h-3.7
		c-1.4-8.4-3.3-14.9-5.8-19.7c-2.5-4.8-5.5-8.2-9.1-10.2c-3.9-2.1-8.3-3.2-12.8-3.1h-5.3c-2.4-0.1-4.8,0.2-7.1,0.8
		c-1.5,0.5-2.7,1.7-3.2,3.2c-0.6,2.4-0.9,4.9-0.8,7.4v80.8c0,4.2,0.4,7.3,1.3,9.3c0.9,2.1,2.8,3.6,5,4c3.6,0.8,7.3,1.1,11,1.1v3.6
		c-3.3-0.1-7.6-0.2-12.9-0.3c-5.3-0.1-10.8-0.2-16.6-0.2c-4.6,0-9.1,0.1-13.5,0.2c-4.4,0.1-8.4,0.2-11.9,0.3v-3.2
		c2.6-0.1,5.2-0.5,7.7-1.3c1.7-0.6,3-2.1,3.5-3.9c0.7-2.8,1-5.8,0.9-8.7V308c0.1-3-0.2-5.9-0.9-8.8c-0.5-1.8-1.8-3.2-3.6-3.9
		c-2.5-0.8-5-1.2-7.6-1.2V291c4.4,0.1,9.1,0.2,14,0.2l14.7,0.2c4.8,0.1,9.3,0.1,13.5,0.1h10.3c4.9,0,10.5,0,16.8-0.1
		C649.2,291.3,654.8,291.2,659.7,291z M635.7,346.7v3.2h-29.3v-3.2H635.7z M639.8,325.4c-0.4,6.1-0.6,10.8-0.6,14
		c0.1,3.2,0.1,6.2,0.1,8.9s0.1,5.6,0.2,8.9c0.1,3.2,0.4,7.9,0.8,14h-3.7c-0.6-3.6-1.6-7.1-3.1-10.5c-1.3-3.1-3.4-5.8-6.1-7.8
		c-2.7-2-6.2-3-10.5-3v-3.2c2.8,0.1,5.7-0.6,8.1-2c2.2-1.3,4.1-3.2,5.6-5.3c1.5-2.2,2.7-4.5,3.6-7c0.8-2.3,1.4-4.6,1.9-6.9
		L639.8,325.4z"/>
	<path class="st0" d="M687.2,406.1c-4.8,0-8.8-0.9-12.1-2.7c-3.1-1.7-5.5-4.2-7.1-7.3c-1.5-3.1-2.3-6.6-2.3-10.1
		c0-4.6,1-8.4,3.1-11.3c2.1-2.9,4.9-5.4,8.1-7.1c3.4-1.8,6.9-3.3,10.5-4.5c3.7-1.2,7.3-2.3,10.6-3.5c2.9-0.9,5.7-2.3,8.2-4
		c2-1.4,3.2-3.6,3.1-6v-12.5c0-2.6-0.4-5.1-1.4-7.5c-0.8-2.1-2.3-3.9-4.2-5.1c-2.2-1.3-4.8-1.9-7.3-1.8c-2.2,0-4.3,0.3-6.4,0.9
		c-2,0.5-3.8,1.5-5.3,3c2.8,0.9,5.2,2.6,7,4.9c1.6,2.1,2.5,4.8,2.5,7.5c0.1,3.3-1.3,6.5-3.8,8.7c-2.5,2.1-5.7,3.3-9,3.2
		c-3.9,0-6.8-1.2-8.8-3.6c-2-2.5-3.1-5.6-3-8.8c-0.1-2.8,0.7-5.5,2.3-7.7c1.8-2.3,4-4.2,6.5-5.8c3.4-1.9,7.1-3.2,10.9-4
		c4.5-1,9.1-1.5,13.8-1.4c4.5,0,9,0.5,13.4,1.5c3.8,0.9,7.2,2.8,10,5.6c2.5,2.5,4.2,5.6,4.8,9.1c0.8,4.5,1.2,9,1.1,13.6V393
		c0,2.7,0.3,4.5,0.8,5.6c0.5,1,1.6,1.6,2.7,1.5c1,0,2-0.3,2.8-0.8c0.9-0.5,1.9-1.2,3-1.9l1.6,2.7c-2.3,2-4.9,3.5-7.8,4.4
		c-3.2,1.1-6.5,1.6-9.9,1.5c-4,0-7.1-0.6-9.5-1.7c-2.1-0.9-3.9-2.6-5.1-4.6c-1.1-2.1-1.6-4.4-1.5-6.8c-2.4,3.9-5.5,7.1-9.3,9.6
		C697,404.9,692.5,406.1,687.2,406.1z M698.7,395.8c2.1,0,4.1-0.5,5.9-1.5c2-1.3,3.8-3,5.1-5.1v-33c-1,1.7-2.4,3.2-4,4.3
		c-1.7,1.3-3.5,2.6-5.5,3.9c-1.9,1.4-3.8,2.8-5.6,4.4c-1.8,1.7-3.3,3.7-4.3,6c-1.1,2.7-1.7,5.6-1.6,8.5c0,4.2,0.9,7.3,2.7,9.3
		C693.3,394.8,695.9,395.9,698.7,395.8z"/>
	<path class="st0" d="M803.8,319.5c2.9-0.1,5.9,0.6,8.4,2.2c2.1,1.4,3.7,3.3,4.7,5.6c1,2.2,1.5,4.6,1.5,7.1c0.1,3.6-1.1,7.1-3.5,9.7
		c-2.3,2.5-5.7,3.9-9.1,3.8c-3.8,0-6.7-0.9-8.8-2.8c-2.1-1.9-3.3-4.6-3.1-7.5c-0.1-2.6,0.6-5.3,2-7.5c1.4-2,3.1-3.7,5.1-5.1
		c-1.5-0.4-3-0.4-4.5,0.2c-2.1,0.3-4.1,1.2-5.8,2.5c-1.8,1.4-3.4,3.1-4.7,5c-1.3,2-2.3,4.2-3.1,6.4c-0.7,2.2-1.1,4.4-1.1,6.7v42.7
		c0,5.2,1.3,8.6,3.8,10.5c2.5,1.8,6.3,2.7,11.3,2.7v3.4c-2.5-0.1-6.1-0.2-10.7-0.4s-9.6-0.2-14.8-0.2c-4.3,0-8.6,0.1-13,0.2
		s-7.7,0.3-10,0.4v-3.4c3.8,0,6.4-0.8,8-2.4c1.6-1.6,2.3-4.7,2.3-9.2v-50.7c0-4.8-0.7-8.4-2.2-10.7c-1.5-2.3-4.2-3.5-8.1-3.5v-3.4
		c3.4,0.3,6.8,0.5,10,0.5c4.5,0,8.7-0.2,12.6-0.6c3.7-0.3,7.3-0.9,10.9-1.7v15c1.3-2.9,3-5.6,5.1-7.9c2.1-2.3,4.6-4.2,7.4-5.6
		C797.4,320.1,800.6,319.4,803.8,319.5z"/>
	<path class="st0" d="M857.1,320v70c0,4.5,0.8,7.6,2.3,9.2c1.6,1.6,4.2,2.4,8,2.4v3.4c-2-0.1-5.1-0.2-9.1-0.4s-8.1-0.2-12.3-0.2
		c-4.2,0-8.4,0.1-12.7,0.2c-4.3,0.2-7.5,0.3-9.7,0.4v-3.4c3.8,0,6.4-0.8,8-2.4c1.6-1.6,2.3-4.7,2.3-9.2v-50.7
		c0-4.8-0.7-8.4-2.2-10.7s-4.2-3.5-8.1-3.5v-3.4c3.4,0.3,6.8,0.5,10,0.5c4.5,0,8.7-0.2,12.6-0.6C849.9,321.3,853.5,320.7,857.1,320z
		 M844.6,280.2c4.5,0,8.1,1.1,10.7,3.3c5,4.7,5.3,12.6,0.6,17.6c-0.2,0.2-0.4,0.4-0.6,0.6c-2.6,2.2-6.2,3.3-10.7,3.3
		c-4.5,0-8.1-1.1-10.7-3.3c-5-4.7-5.3-12.6-0.6-17.6c0.2-0.2,0.4-0.4,0.6-0.6C836.5,281.3,840,280.2,844.6,280.2L844.6,280.2z"/>
	<path class="st0" d="M906.2,319.5c4-0.1,8,0.5,11.8,1.7c2.6,0.8,5,1.9,7.3,3.3c3.6,2.5,5.9,0.9,6.8-4.8h3.4c-0.2,3-0.4,6.7-0.5,11
		c-0.1,4.4-0.2,10.1-0.2,17.3h-3.4c-0.6-4-1.6-8-3.1-11.7c-1.4-3.7-3.6-6.9-6.5-9.5c-2.8-2.5-6.5-3.7-11-3.7
		c-2.9-0.1-5.7,0.9-7.9,2.7c-2.1,1.8-3.2,4.3-3.2,7.6c-0.1,3.1,1,6.1,2.9,8.5c2.2,2.6,4.7,5,7.5,6.9c3.1,2.2,6.2,4.5,9.6,7
		c3.5,2.7,6.8,5.3,9.7,8c2.8,2.5,5.1,5.4,6.9,8.6c1.8,3.4,2.7,7.2,2.6,11.1c0.1,4.6-1.4,9-4.2,12.6c-2.9,3.7-6.7,6.5-11,8.3
		c-4.8,2-10,3-15.2,2.9c-2.9,0-5.8-0.3-8.6-1c-2.3-0.5-4.4-1.4-6.5-2.4c-1.4-0.6-2.7-1.3-3.9-1.9c-1.2-0.6-2.4-1.1-3.5-1.5
		c-1.1-0.3-2.3,0.1-2.8,1.1c-0.9,1.3-1.6,2.9-1.8,4.5h-3.4c0.2-3.4,0.4-7.6,0.5-12.5c0.1-4.9,0.2-11.5,0.2-19.6h3.4
		c0.5,5.3,1.7,10.4,3.6,15.4c1.4,4,3.8,7.6,7,10.5c3.1,2.6,7.1,3.9,11.2,3.8c1.8,0,3.6-0.4,5.3-1.1c1.8-0.8,3.2-2.1,4.3-3.7
		c1.2-2,1.8-4.3,1.7-6.6c0.1-4.4-1.5-8.6-4.6-11.7c-3.6-3.6-7.5-7-11.6-10.1c-3.4-2.8-6.7-5.6-9.7-8.3c-3-2.6-5.5-5.6-7.5-9
		c-2-3.4-3-7.3-3-11.2c-0.1-4.4,1.2-8.7,3.9-12.2c2.7-3.4,6.2-6,10.2-7.5C897,320.3,901.6,319.4,906.2,319.5z"/>
	<path class="st0" d="M1074,291c-0.4,4.8-0.7,9.5-0.9,14c-0.2,4.5-0.2,8-0.2,10.5s0.1,4.8,0.2,6.8c0.1,2.1,0.2,3.9,0.3,5.4h-3.7
		c-1.4-8.4-3.3-14.9-5.8-19.7s-5.5-8.2-9.1-10.2c-3.9-2.1-8.3-3.2-12.8-3.1h-5.3c-2.4-0.1-4.8,0.2-7.1,0.8c-1.5,0.5-2.7,1.7-3.2,3.2
		c-0.6,2.4-0.9,4.9-0.8,7.4v80.8c0,4.2,0.4,7.3,1.3,9.3c0.9,2.1,2.8,3.6,5,4c3.6,0.8,7.3,1.1,10.9,1.1v3.6
		c-3.3-0.1-7.6-0.2-12.9-0.3c-5.3-0.1-10.8-0.2-16.6-0.2c-4.6,0-9.1,0.1-13.5,0.2c-4.4,0.1-8.4,0.2-11.9,0.3v-3.2
		c2.6-0.1,5.2-0.5,7.7-1.3c1.7-0.6,3-2.1,3.5-3.9c0.7-2.8,1-5.8,0.9-8.7V308c0.1-3-0.2-5.9-0.9-8.8c-0.5-1.8-1.8-3.2-3.6-3.9
		c-2.5-0.8-5-1.2-7.6-1.2V291c4.4,0.1,9.1,0.2,14,0.2l14.7,0.2c4.8,0.1,9.3,0.1,13.5,0.1h10.3c4.9,0,10.5,0,16.8-0.1
		C1063.4,291.3,1069,291.2,1074,291z M1050,346.7v3.2h-29.3v-3.2H1050z M1054,325.4c-0.4,6.1-0.6,10.8-0.6,14
		c0.1,3.2,0.1,6.2,0.1,8.9s0.1,5.6,0.2,8.9s0.4,7.9,0.8,14h-3.7c-0.6-3.6-1.6-7.1-3.1-10.5c-1.3-3.1-3.4-5.8-6.1-7.8
		c-2.7-2-6.2-3-10.5-3v-3.2c2.8,0.1,5.7-0.6,8.1-2c2.2-1.4,4.1-3.2,5.6-5.3c1.5-2.2,2.7-4.5,3.6-7c0.8-2.3,1.4-4.6,1.9-6.9
		L1054,325.4z"/>
	<path class="st0" d="M1161.7,320v67.5c0,4.8,0.7,8.4,2.2,10.7c1.5,2.3,4.2,3.5,8.1,3.5v3.4c-3.3-0.3-6.7-0.5-10-0.5
		c-4.5,0-8.7,0.2-12.5,0.5c-3.7,0.3-7.4,0.9-10.9,1.8v-14.6c-2.6,5.4-6.2,9.2-10.7,11.5c-4.7,2.3-9.9,3.5-15.2,3.5
		c-4.5,0-8.2-0.6-10.9-1.8c-2.5-1-4.8-2.5-6.6-4.5c-2-2.3-3.3-5.1-3.9-8.1c-0.8-4.2-1.2-8.6-1.1-12.9v-40.7c0-4.8-0.7-8.4-2.2-10.7
		s-4.2-3.5-8.1-3.5v-3.4c3.4,0.3,6.8,0.5,10,0.5c4.5,0,8.7-0.2,12.6-0.6c3.7-0.3,7.3-0.9,10.9-1.7v66.7c0,2.4,0.2,4.8,0.7,7.1
		c0.4,1.9,1.4,3.5,2.8,4.7c1.4,1.1,3.4,1.7,6.1,1.7c2.8,0,5.5-0.8,7.8-2.4c2.4-1.7,4.3-4,5.6-6.7c1.5-3,2.2-6.3,2.2-9.6v-42.1
		c0-4.8-0.7-8.4-2.2-10.7s-4.2-3.5-8.1-3.5v-3.4c3.4,0.3,6.8,0.5,10,0.5c4.5,0,8.7-0.2,12.6-0.6
		C1154.5,321.3,1158.1,320.7,1161.7,320z"/>
	<path class="st0" d="M1234.5,319.5c2.9-0.1,5.9,0.6,8.4,2.2c2.1,1.4,3.7,3.3,4.7,5.6c1,2.2,1.5,4.6,1.5,7.1
		c0.1,3.6-1.1,7.1-3.5,9.7c-2.3,2.5-5.7,3.9-9.1,3.8c-3.8,0-6.7-0.9-8.8-2.8c-2.1-1.9-3.3-4.6-3.1-7.5c-0.1-2.6,0.6-5.3,2-7.5
		c1.4-2,3.1-3.7,5.1-5.1c-1.5-0.4-3-0.4-4.5,0.2c-2.1,0.3-4.1,1.2-5.8,2.5c-1.8,1.4-3.4,3.1-4.7,5c-1.3,2-2.3,4.2-3.1,6.4
		c-0.7,2.2-1.1,4.4-1.1,6.7v42.7c0,5.2,1.3,8.6,3.8,10.5c2.5,1.8,6.3,2.7,11.4,2.7v3.4c-2.5-0.1-6.1-0.2-10.7-0.4s-9.6-0.2-14.8-0.2
		c-4.3,0-8.6,0.1-13,0.2s-7.7,0.3-10,0.4v-3.4c3.8,0,6.4-0.8,8-2.4c1.6-1.6,2.3-4.7,2.3-9.2v-50.7c0-4.8-0.7-8.4-2.2-10.7
		c-1.5-2.3-4.2-3.5-8.1-3.5v-3.4c3.4,0.3,6.8,0.5,10,0.5c4.5,0,8.7-0.2,12.6-0.6c3.7-0.3,7.3-0.9,10.9-1.7v15c1.3-2.9,3-5.6,5.1-7.9
		c2.1-2.3,4.6-4.2,7.4-5.6C1228.1,320.1,1231.3,319.4,1234.5,319.5z"/>
	<path class="st0" d="M1314.2,319.5c3.7-0.1,7.5,0.4,11,1.7c2.6,0.9,4.9,2.5,6.7,4.6c1.8,2.3,3.1,5,3.8,7.9c0.9,4.3,1.3,8.7,1.2,13
		V390c0,4.5,0.8,7.6,2.3,9.2c1.5,1.6,4.2,2.4,8,2.4v3.4c-2-0.1-5.1-0.2-9.2-0.4c-4.1-0.2-8.1-0.2-12.1-0.2c-4,0-8.1,0.1-12,0.2
		c-3.9,0.2-6.9,0.3-9,0.4v-3.4c3.2,0,5.5-0.8,6.8-2.4c1.3-1.6,2-4.7,2-9.2v-50.1c0-2.4-0.2-4.7-0.8-7c-0.4-1.8-1.5-3.5-2.9-4.7
		c-1.4-1.1-3.5-1.7-6.3-1.7c-2.8,0-5.6,0.8-8,2.4c-2.5,1.7-4.5,4-5.8,6.7c-1.5,3-2.2,6.3-2.2,9.6V390c0,4.5,0.7,7.6,2,9.2
		c1.3,1.6,3.6,2.4,6.7,2.4v3.4c-1.9-0.1-4.7-0.2-8.5-0.4c-3.7-0.2-7.5-0.2-11.5-0.2c-4,0-8.3,0.1-12.5,0.2c-4.3,0.2-7.5,0.3-9.7,0.4
		v-3.4c3.8,0,6.4-0.8,8-2.4c1.5-1.6,2.3-4.7,2.3-9.2v-50.7c0-4.8-0.7-8.4-2.2-10.7c-1.5-2.3-4.2-3.5-8.1-3.5v-3.4
		c3.4,0.3,6.8,0.5,10,0.5c4.5,0,8.7-0.2,12.6-0.6c3.6-0.3,7.2-0.9,10.8-1.6v14.5c2.7-5.5,6.3-9.4,11-11.6
		C1303.6,320.5,1308.9,319.4,1314.2,319.5z"/>
	<path class="st0" d="M1386.6,320v70c0,4.5,0.8,7.6,2.3,9.2c1.6,1.6,4.2,2.4,8,2.4v3.4c-2-0.1-5.1-0.2-9.1-0.4
		c-4-0.2-8.1-0.2-12.3-0.2c-4.2,0-8.4,0.1-12.7,0.2s-7.5,0.3-9.7,0.4v-3.4c3.8,0,6.4-0.8,8-2.4c1.6-1.6,2.3-4.7,2.3-9.2v-50.7
		c0-4.8-0.7-8.4-2.2-10.7c-1.4-2.3-4.2-3.5-8.1-3.5v-3.4c3.4,0.3,6.8,0.5,10,0.5c4.5,0,8.7-0.2,12.6-0.6
		C1379.4,321.3,1383.1,320.7,1386.6,320z M1374.1,280.2c4.5,0,8.1,1.1,10.7,3.3c5,4.7,5.3,12.6,0.6,17.6c-0.2,0.2-0.4,0.4-0.6,0.6
		c-2.6,2.2-6.2,3.3-10.7,3.3c-4.5,0-8.1-1.1-10.7-3.3c-2.6-2.2-3.9-5.2-3.9-9.1c0-3.9,1.3-6.9,3.9-9.1
		C1366,281.3,1369.6,280.2,1374.1,280.2L1374.1,280.2z"/>
	<path class="st0" d="M1436.6,295.3v26.4h19v3.2h-19v65c0,3.2,0.6,5.5,1.8,6.9c1.2,1.3,3,2,5.3,2c2.1-0.1,4.2-0.8,5.8-2.2
		c1.9-1.5,3.7-3.9,5.1-7.5l2.7,1.4c-1.5,4.6-4.2,8.7-7.8,11.9c-3.5,3.1-8.2,4.7-14.2,4.7c-3.2,0.1-6.3-0.4-9.3-1.4
		c-5.9-1.9-10.3-6.8-11.4-12.9c-0.8-4.5-1.2-9-1.1-13.6v-54.4h-13.5v-3.2h13.5v-21.3c4.2,0,8.4-0.4,12.5-1.2
		C1429.6,298.5,1433.2,297.2,1436.6,295.3z"/>
	<path class="st0" d="M1540.7,320v67.5c0,4.8,0.8,8.4,2.3,10.7s4.2,3.5,8.1,3.5v3.4c-3.3-0.3-6.7-0.5-10-0.5
		c-4.5,0-8.7,0.2-12.5,0.5c-3.7,0.3-7.4,0.9-10.9,1.8v-14.6c-2.6,5.4-6.2,9.2-10.7,11.5c-4.7,2.3-9.9,3.5-15.2,3.5
		c-4.5,0-8.2-0.6-10.9-1.8c-5.5-2-9.5-6.8-10.5-12.5c-0.8-4.2-1.2-8.6-1.1-12.9v-40.7c0-4.8-0.7-8.4-2.2-10.7s-4.2-3.5-8.1-3.5v-3.4
		c3.4,0.3,6.8,0.5,10,0.5c4.5,0,8.7-0.2,12.6-0.6c3.7-0.3,7.3-0.9,10.9-1.7v66.7c0,2.4,0.2,4.8,0.7,7.1c0.4,1.9,1.4,3.5,2.8,4.7
		c1.4,1.1,3.4,1.7,6.1,1.7c2.8,0,5.5-0.8,7.8-2.4c2.4-1.7,4.3-4,5.6-6.7c1.5-3,2.2-6.3,2.2-9.6v-42.1c0-4.8-0.7-8.4-2.2-10.7
		s-4.2-3.5-8.1-3.5v-3.4c3.4,0.3,6.8,0.5,10,0.5c4.5,0,8.7-0.2,12.6-0.6C1533.5,321.3,1537.1,320.7,1540.7,320z"/>
	<path class="st0" d="M1613.5,319.5c2.9-0.1,5.9,0.6,8.4,2.2c2.1,1.4,3.7,3.3,4.8,5.6c1,2.2,1.5,4.6,1.5,7.1
		c0.1,3.6-1.1,7.1-3.5,9.7c-2.3,2.5-5.7,3.9-9.1,3.8c-3.8,0-6.7-0.9-8.8-2.8c-2.1-1.9-3.3-4.6-3.1-7.5c-0.1-2.6,0.6-5.3,2-7.5
		c1.4-2,3.1-3.7,5.1-5.1c-1.5-0.4-3-0.4-4.5,0.2c-2.1,0.4-4.1,1.2-5.8,2.5c-1.8,1.4-3.4,3.1-4.7,5c-1.3,2-2.3,4.2-3.1,6.4
		c-0.7,2.2-1.1,4.4-1.1,6.7v42.7c0,5.2,1.3,8.6,3.8,10.5c2.5,1.8,6.3,2.7,11.3,2.7v3.4c-2.5-0.1-6.1-0.2-10.7-0.4
		c-4.7-0.2-9.6-0.2-14.8-0.2c-4.3,0-8.6,0.1-13,0.2c-4.4,0.2-7.7,0.3-10,0.4v-3.4c3.8,0,6.4-0.8,8-2.4c1.5-1.6,2.3-4.7,2.3-9.2
		v-50.7c0-4.8-0.7-8.4-2.2-10.7c-1.5-2.3-4.2-3.5-8.1-3.5v-3.4c3.4,0.3,6.8,0.5,10,0.5c4.5,0,8.7-0.2,12.6-0.6
		c3.7-0.3,7.3-0.9,10.9-1.7v15c1.3-2.9,3-5.6,5.1-7.9c2.1-2.3,4.6-4.2,7.4-5.6C1607.1,320.1,1610.3,319.4,1613.5,319.5z"/>
	<path class="st0" d="M1671.6,319.5c9.4,0,16.8,2.8,22.2,8.4c5.4,5.6,8.1,14.7,8.1,27.4h-53l-0.3-3.1h33c0.1-4.9-0.2-9.7-1-14.6
		c-0.5-3.8-1.7-7.4-3.6-10.7c-1.6-2.7-3.8-4-6.4-4c-3.8,0-7,2.4-9.6,7.1c-2.6,4.7-4.2,12.6-4.7,23.5l0.5,1c-0.1,1.3-0.2,2.6-0.2,4
		c-0.1,1.4-0.1,2.8-0.1,4.3c0,7.4,1,13.4,3.1,18c2.1,4.6,4.7,8,8,10.1c2.9,2,6.3,3.1,9.9,3.1c2.4,0,4.7-0.4,7-1
		c2.7-0.8,5.1-2.1,7.3-3.9c2.8-2.2,5.1-4.9,6.9-8l2.9,1c-1.4,4.3-3.5,8.3-6.1,11.9c-2.8,3.9-6.5,7.1-10.6,9.5
		c-4.3,2.5-9.4,3.7-15.5,3.7c-6.7,0.1-13.4-1.5-19.3-4.7c-5.7-3.3-10.3-8.2-13.1-14.2c-3.2-6.3-4.7-14.4-4.7-24.2
		c0-10,1.7-18.3,5.1-25c3-6.3,7.9-11.5,14-14.9C1657.5,321,1664.5,319.3,1671.6,319.5z"/>
	<path class="st0" d="M448.6,237.2c-7.7,0-13.6-2.6-18-7.7c-3.9-4.5-5.8-10.3-5.8-17.4v-9.6c0-2.6,1.4-5,3.7-6.2l13.2-7v21.6
		c0,3.6,0.7,6.1,2.2,7.6c1.5,1.5,3.9,2.3,7.4,2.2h44.1c3.4,0,5.9-0.8,7.3-2.3c1.4-1.5,2.2-4,2.2-7.6v-20.6c0-2.6,1.4-5,3.7-6.2
		l13.3-7V212c0,8.2-2.6,14.6-7.7,19.2c-4.5,4-10.3,5.9-17.3,5.9H448.6z M461.6,174.3c-2.4,0.1-4.8-0.8-6.5-2.5
		c-1.7-1.8-2.5-4.1-2.4-6.6c-0.1-2.4,0.8-4.7,2.4-6.3c1.7-1.7,4.1-2.5,6.5-2.4c4.5-0.3,8.4,3,8.8,7.5c0,0.4,0,0.8,0,1.3
		C470.4,171.3,467.4,174.3,461.6,174.3L461.6,174.3z M482.4,174.3c-2.4,0.1-4.7-0.7-6.5-2.4c-1.7-1.8-2.6-4.2-2.4-6.6
		c0-5.9,3-8.8,9-8.8c4.5-0.4,8.4,3,8.8,7.5c0,0.4,0,0.9,0,1.3C491.2,171.3,488.2,174.3,482.4,174.3L482.4,174.3z"/>
	<path class="st0" d="M571,237.2c-8.2,0-14.6-2.6-19.1-7.8c-3.9-4.5-5.8-10.3-5.8-17.4v-48.7c0-2.7,1.5-5.1,3.8-6.3l13.2-6.9v61.1
		c0,3.5,0.7,6,2.2,7.5c1.4,1.5,3.9,2.2,7.3,2.2h12.1v16.4L571,237.2z"/>
	<path class="st0" d="M576.7,237.2v-16.4h14.3c3.4,0,5.9-0.7,7.4-2.2c1.5-1.5,2.2-4,2.2-7.5v-13.6c0-2.6,1.4-5,3.8-6.2l13.3-6.9
		v26.8c0,3.5,0.7,6,2.2,7.5c1.4,1.5,3.9,2.2,7.3,2.2h9.2c3.4,0,5.9-0.7,7.3-2.2c1.4-1.5,2.2-4,2.2-7.5v-17.2c0-2.6,1.4-4.9,3.7-6.1
		l13.4-7.1v30.4c0,3.5,0.7,6,2.2,7.5s3.9,2.2,7.4,2.2h9.2c3.4,0,5.9-0.7,7.3-2.2s2.2-4,2.2-7.5v-20.8c0-2.6,1.4-5,3.7-6.2l13.3-7
		v34.7c0,8-2.4,14.3-7.3,18.9c-4.2,4.1-9.8,6.2-16.8,6.3h-13.4c-6.7,0-12.1-2-16.4-5.9c-3.9,3.9-9,5.9-15.4,5.9h-13.4
		c-6.7,0-12.1-2-16.4-5.9c-4.2,4-9.7,5.9-16.4,5.9L576.7,237.2z M643.2,165.3c-2.4,0.1-4.7-0.8-6.5-2.4c-1.7-1.8-2.6-4.2-2.4-6.6
		c-0.1-2.4,0.8-4.7,2.4-6.3c3.3-3.6,8.9-3.8,12.4-0.4c1.9,1.7,2.9,4.2,2.8,6.8C652,162.2,649,165.3,643.2,165.3L643.2,165.3z
		 M653.5,145.4c-5.4,0-8.1-2.7-8.1-8.2c0-5.3,2.7-8,8.1-8c4.4,0,8,3.6,8,8.1C661.4,142.7,658.8,145.4,653.5,145.4L653.5,145.4z
		 M664,165.3c-2.4,0.1-4.7-0.8-6.5-2.4c-1.7-1.8-2.6-4.2-2.4-6.6c-0.1-2.4,0.8-4.7,2.4-6.3c3.3-3.6,8.9-3.8,12.4-0.4
		c1.9,1.7,2.9,4.2,2.8,6.8C672.8,162.2,669.9,165.3,664,165.3L664,165.3z"/>
	<path class="st0" d="M762.3,236.9c0.3-1.3-0.5-2.7-1.8-3.1c-0.3-0.1-0.6-0.1-0.9-0.1c-1.8,0.2-3.5,0.3-5.3,0.3
		c-8.3,0-14.9-3.1-19.9-9.3c-4-5.2-6.1-11.5-6.1-18.9c0-9.9,2.7-17.7,8.1-23.4c4.8-5,11.1-7.6,18.9-7.6c8,0,14.3,2.6,18.8,7.7
		c3.9,4.4,5.8,10.2,5.8,17.3v28.9c0,10.6-2.8,19-8.4,25.1c-5.2,5.8-12.3,8.6-21.4,8.7c-5.3,0-10.5-1.4-15.2-3.9
		c-0.8-0.4-1.4-1.3-1.4-2.3v-9.1c0-1.4,1.1-2.5,2.5-2.5c0.3,0,0.7,0.1,1,0.2c3.5,1.6,7.3,2.4,11.1,2.4
		C755.8,247.4,760.5,243.9,762.3,236.9z M763.1,199.6c0-5.9-2.6-8.9-7.7-9c-3.1-0.1-5.9,1.4-7.6,3.9c-1.8,2.6-2.8,6.2-2.8,10.7
		c0,9.6,3.4,14.3,10.3,14.3c3.1,0,5.4-0.6,7-1.9c0.5-0.5,0.8-1.2,0.8-1.9L763.1,199.6z"/>
	<path class="st0" d="M845.7,220.8h12.2v16.4h-13.8c-2.9,0-5.8-0.4-8.5-1.2c-1.2,8.7-4.7,15.5-10.4,20.5c-5.2,4.5-11.9,6.9-18.8,6.8
		c-5.8,0-11.5-1.5-16.6-4.3v-10.7c0-1.4,1.2-2.6,2.6-2.6c0.4,0,0.7,0.1,1,0.2c3.2,1.4,6.7,2.1,10.1,2.1c4.9,0,8.8-1.6,11.6-4.8
		c2.8-3.2,4.1-7.6,4.1-13.3v-39.6c0-2.6,1.4-5,3.7-6.2l7.3-3.9l5.8-3.1v0.1l0.1-0.1v33.9c0,3.5,0.7,6,2.2,7.5
		C839.8,220.1,842.2,220.8,845.7,220.8z"/>
	<path class="st0" d="M914.2,220.8h21.4v16.4h-32c-3.6,0.1-7.3-0.2-10.8-0.9c-3.6,0.7-7.2,1-10.8,0.9h-32.2v-16.4h21.3
		c-3.2-5-5-10.8-5.1-16.8c0-9,2.7-16.3,8-21.8c4.8-4.9,11-7.4,18.8-7.4c8.8,0,15.7,3.2,20.5,9.6c4.1,5.2,6.1,11.8,6.1,19.6
		C919.3,210,917.5,215.8,914.2,220.8z M892.6,219.3c3.1-1.5,5.7-3.8,7.5-6.7c1.9-2.8,2.9-6.1,2.9-9.5c0-3.9-0.9-6.9-2.8-9.1
		c-1.8-2.2-4.6-3.4-7.5-3.3c-6.9,0-10.3,4.1-10.3,12.3c0,3.5,1,6.9,2.8,9.8C887,215.6,889.5,217.9,892.6,219.3L892.6,219.3z
		 M892.6,165.3c-2.4,0.1-4.8-0.8-6.5-2.4c-1.7-1.8-2.6-4.2-2.4-6.6c-0.1-2.4,0.8-4.7,2.4-6.3c3.3-3.6,8.8-3.8,12.4-0.6
		c1.9,1.8,3,4.3,2.9,6.9C901.4,162.2,898.4,165.3,892.6,165.3L892.6,165.3z"/>
	<path class="st0" d="M1013.4,220.8h12v16.4h-13.8c-6.5,0-11.8-1.7-15.9-5c-4.9,5.1-11.3,7.7-19.2,7.7c-8.1,0-14.5-2.6-19.2-7.7
		c-4.3,3.3-9.7,5-16.1,5h-13.8v-16.4h12.2c3.4,0,5.8-0.7,7.3-2.2c1.5-1.5,2.2-4,2.2-7.5v-3.9c0-10.5,2.7-18.7,8.2-24.6
		c4.8-5.1,11.2-7.7,19.2-7.7c9.1,0,16.1,3.3,21.1,10c4.1,5.7,6.2,13.1,6.2,22.3v3.9c0,3.5,0.7,6,2.2,7.5
		C1007.4,220.1,1009.9,220.8,1013.4,220.8z M976.5,223.5c6.8,0,10.3-5.6,10.3-16.8c0-10.7-3.4-16.1-10.3-16.1
		c-6.9,0-10.4,5.4-10.4,16.1C966.1,217.9,969.6,223.5,976.5,223.5L976.5,223.5z"/>
	<path class="st0" d="M1063.8,220.8h12.2v16.4h-13.8c-7,0-12.7-2-17.2-5.9c-4.9,4-11,5.9-18.2,5.9h-9.4v-16.4h8.5
		c4.1,0,7.1-0.9,8.9-2.7c1.8-1.8,2.6-4.9,2.6-9.2v-45.6c0-2.6,1.5-5,3.8-6.3l13.1-7v27.3l0.1-0.1v33.9c0,3.5,0.7,6,2.2,7.5
		C1058,220.1,1060.4,220.8,1063.8,220.8z"/>
	<path class="st0" d="M1067.9,237.2v-16.4h8.5c4.1,0,7.1-0.9,8.8-2.7c1.8-1.8,2.7-4.9,2.7-9.2v-45.7c0-2.6,1.4-5,3.7-6.2l13.2-7.1
		v59.1c0,8.7-2.7,15.7-8,20.9c-4.9,4.8-11.4,7.2-19.5,7.2L1067.9,237.2z"/>
	<path class="st0" d="M1308.9,184.1l13.2-7v34.7c0,8.1-2.5,14.5-7.4,19.1c-4.3,4.1-10,6.1-17,6.2h-12.8c-6.7,0-12.1-1.8-16.4-5.3
		c-4.2,3.4-9.6,5.2-15.9,5.3h-13c-2.9,0-5.8-0.4-8.5-1.2c-1.5,8.3-6.2,15.6-13.1,20.4c-6.3,4.3-14,6.5-23,6.5
		c-12.2,0-21.6-4.3-28.2-12.8c-5.2-6.7-8-15-7.8-23.5c-0.1-5.4,1-10.7,3.3-15.6c0.9-1.9,2.6-3.3,4.7-3.7l13.2-2.8
		c-3.5,5.8-5.4,12.5-5.4,19.3c0,6.9,1.9,12.4,5.8,16.6c3.7,4.1,8.5,6.1,14.5,6.1c6.2,0,11.1-1.6,14.5-4.7s5.2-7.6,5.2-13.2v-31
		c0-2.6,1.4-5,3.7-6.2l13.3-7v26.8c0,3.5,0.7,6,2.2,7.5c1.5,1.5,3.9,2.2,7.4,2.2h9.1c3.4,0,5.9-0.7,7.4-2.2c1.5-1.5,2.2-4,2.2-7.5
		v-17.3c0-2.5,1.4-4.8,3.6-6l13.3-7.2v30.4c0,3.5,0.7,6,2.2,7.5c1.5,1.5,3.9,2.2,7.4,2.2h9.2c3.4,0,5.9-0.7,7.4-2.2
		c1.5-1.5,2.2-4,2.2-7.5v-20.8C1305.2,187.7,1306.6,185.3,1308.9,184.1z"/>
	<path class="st0" d="M1370.7,228.8c0,10.4-2.9,18.9-8.7,25.4c-5.3,6-12.3,9.1-21.1,9.1c-5.8,0-11.5-1.5-16.6-4.3v-14.9
		c4.2,2.5,8.9,3.8,13.8,3.9c4.9,0,8.8-1.6,11.6-4.8c2.8-3.2,4.1-7.6,4.1-13.3v-39.7c0-2.4,1.3-4.7,3.5-5.9l13.4-7.2L1370.7,228.8z"
		/>
	<path class="st0" d="M1419.9,237.2c-8.2,0-14.6-2.6-19.1-7.8c-3.9-4.5-5.8-10.3-5.8-17.4v-48.7c0-2.6,1.4-5,3.8-6.3l13.3-6.9V211
		c0,3.5,0.7,6,2.2,7.5c1.4,1.5,3.9,2.2,119.5,2.2l18.1,1l-8.3,14.9L1419.9,237.2z"/>
	<path class="st0" d="M1602.2,220.8h21.4v16.4h-32c-3.6,0.1-7.3-0.2-10.8-0.9c-3.6,0.7-7.2,1-10.8,0.9l-35.5-0.4l-10.1-16h34.8
		c-3.3-5-5-10.8-5.1-16.8c0-9,2.7-16.3,8-21.8c4.8-4.9,11-7.4,18.8-7.4c8.8,0,15.7,3.2,20.5,9.6c4.1,5.2,6.1,11.8,6.1,19.6
		C1607.2,210,1605.5,215.8,1602.2,220.8z M1580.6,219.3c3.1-1.5,5.7-3.8,7.5-6.7c1.9-2.8,2.9-6.1,2.9-9.5c0-3.9-0.9-6.9-2.8-9.1
		c-1.8-2.2-4.6-3.4-7.5-3.3c-6.8,0-10.3,4.1-10.3,12.3c0,3.5,1,6.9,2.8,9.8C1575,215.6,1577.5,217.9,1580.6,219.3L1580.6,219.3z
		 M1580.6,165.3c-2.4,0.1-4.8-0.8-6.5-2.4c-1.7-1.8-2.6-4.2-2.4-6.6c-0.1-2.4,0.8-4.7,2.4-6.3c3.3-3.6,8.8-3.8,12.4-0.6
		c1.9,1.8,3,4.3,2.9,6.9C1589.3,162.2,1586.4,165.3,1580.6,165.3L1580.6,165.3z"/>
	<path class="st0" d="M1623.5,237.2v-16.4h8.5c4.1,0,7.1-0.9,8.8-2.7c1.8-1.8,2.7-4.9,2.7-9.2v-45.7c0-2.6,1.4-5,3.7-6.2l13.2-7.1
		v59.1c0,8.7-2.7,15.7-8,20.9c-4.9,4.8-11.3,7.2-19.5,7.2L1623.5,237.2z"/>
	<path class="st0" d="M1671.3,237.2v-73.9c0-2.6,1.4-4.9,3.7-6.2l13.3-7.1v87.2H1671.3z"/>
</g>
</svg>
