<?xml version="1.0" encoding="utf-8"?>
<!-- Generator: Adobe Illustrator 24.3.0, SVG Export Plug-In . SVG Version: 6.00 Build 0)  -->
<svg version="1.1" id="Layer_1" xmlns="http://www.w3.org/2000/svg" xmlns:xlink="http://www.w3.org/1999/xlink" x="0px" y="0px"
	 viewBox="0 0 700.1 958.7" style="enable-background:new 0 0 700.1 958.7;" xml:space="preserve">
<style type="text/css">
	.st0{fill:#333333;}
</style>
<g>
	<path class="st0" d="M492.8,569.6c-45.4,27.1-90.5,36.8-137.9,8.2c-1.3,3.5-2.9,5.9-2.9,8.3c-0.5,33.9-1.3,67.9-1.1,101.8
		c0.2,25.6,5.6,31.3,31.1,36.8c10.3,2.2,20.6,4.9,31,6c13.7,1.5,19.8,7.7,18.3,21.9c-1,8.8-0.2,17.7-0.2,28.1h-18.8
		c-0.5-0.9-1.4-1.9-1.4-2.9c-0.9-40.1-0.9-40.1-40.7-47c-34.1-5.8-50.8-24.4-51.1-59.2c-0.3-47.3,0.2-94.7,1.1-142
		c0.4-25.3,7.7-31.6,33.2-33.5c19.4-1.4,38.8-4,58.2-5.2c11-0.7,16.6-6.1,16.9-16.5c0.6-20.5,0.7-41.1,0.7-61.7
		c0-13-6.7-19-19.9-18.5c-10.6,0.4-21.2-0.1-31.7-0.4c-44-1-58.1-14.2-59.2-57.4c-0.8-32.8-0.2-65.6-0.6-98.4
		c-0.2-15.9,6.4-26.7,21.7-31.5c43-13.6,85.9-12.6,126.8,5.7c11.4,5.1,22.4,17.6,27.3,29.4c9.1,21.9,13.7,45.7,19.8,68.8
		c6.6,24.7,22.1,34.3,45.7,25.3c5.7-2.2,11.7-12.4,11.8-19c0.6-54,0.2-108-0.7-161.9c-0.3-17-10.1-25.6-28.5-26
		c-25-0.5-50,0.6-75,0.4c-67.9-0.5-135.8-1.5-203.8-1.8c-47.3-0.2-94.5,0.9-141.9,0.6c-15.7-0.1-22.8,6.4-22.6,21.5
		c0.1,8.9,0.5,17.8,1.4,26.6c1.2,10.8,7.7,14.8,18.5,14.3c35.5-1.5,57.1,14.8,66.5,48.9l-60.2-9.3c-21.2-3.3-31.8-13.5-33.4-34.9
		c-1.5-18.8-1.7-37.8-1.4-56.7c0.3-20.5,4.3-23.9,25.1-23.9c110.8,0.2,221.6,0.5,332.4,0.8c35.1,0.1,70.2-0.4,105.2-0.4
		c33.9,0.1,47.9,14.2,48,47.5c0.3,61.2,0.7,122.5,1.1,183.7v16.7c-20.6,0-40,1.5-59.1-0.5c-15.8-1.6-25-13.5-28.9-28.7
		c-4.3-16.7-9.5-33.3-12.2-50.2c-5.1-32.7-26.2-48.8-56.3-52.3c-22.6-2.5-45.4-1.9-67.9,1.6c-23.5,3.7-35.4,27.5-27.3,49.9
		c1.5,4,7.4,7.3,12.1,9c19.8,7.3,40.5,12.3,59.7,20.9c61.1,27.4,100.6,72,100.2,141.9c-0.2,29.7-7.8,59.3-12.4,88.9
		c-5.6,36.2-15.8,71.8-9.3,109.2c4.5,26.3,25.1,47.7,49.2,49.2c17,1,21.9-4.1,19.4-21.5c-1.7-11.6,0.9-21.4,13.7-21.9
		c12.8-0.5,16.1,10.4,16.3,21c0.2,15.1-11.9,28.6-27.1,31.4c-34.5,6.4-68.2-15.8-78.3-49.9c-7.7-26-5.8-51.7-2-77.7
		C491.9,579.8,492.2,576.1,492.8,569.6z M353.4,306.1c0,18.1-0.3,36.2,0.1,54.3c0.4,19.1,5.2,23.9,24.8,25.6
		c16.6,1.5,33.3,1.9,49.8,3.6c19,1.9,31.8,12.6,32.7,31.6c1.5,32.6,0.4,65.2,0.4,99.3c-8.2-0.5-14.7-1-21.3-1.2
		c-12.8-0.4-25.6-1.7-38.3-0.7c-14.1,1.1-19.1,11.3-10.7,21.9c20.4,26,66.1,41.4,98,9.1c19-19.2,19.4-44.1,22.5-68.1
		C525,375.9,449.3,311.9,353.4,306.1z M414.5,574.3c-23.2-8.2-32.6-28-41.6-50.7c-9.9,16.6-5.6,29.2,1.9,40.4
		C384,577.6,398.2,579,414.5,574.3L414.5,574.3z"/>
	<path class="st0" d="M120.1,742c28,2.1,51.6-3.7,72.7-19.7c4-3,9.9-4.7,15.1-4.9c16.7-0.6,33.4,0.3,50.1-0.4
		c26.9-1,51.7,1.6,76.6,15.8c17.3,9.9,40.1,9.9,61.9,14.6v34.7H120.1V742z"/>
	<path class="st0" d="M193.6,401.1c-3.3-4.2-6.1-7.8-10-12.9c-17.4,19.1-26.9,39.5-28.3,64.8C214.2,433,269.1,336.6,249,282
		c-29.3,18.7-48.1-19.1-79.2-10.7c15.2-23.8,36.8-19.8,54.4-22.6c-6.6-26.7-13.2-52.6-20-80.3c33.8,9.6,49.2,35.7,63.3,60.1
		l42.7-41.2l4.1,2.8c-4.4,17.5-7.6,35.6-13.7,52.6c-2.7,7.6-10.4,17.4-17.3,18.9c-18.4,3.9-17.2,15.4-17.3,29.2
		c-0.2,47.7-18,89.2-49.4,124.1c-15.4,17.2-35.1,30.5-51.7,46.7c-5.7,5.5-10.8,14.2-11.5,21.9c-3.6,36,3.8,70.7,17.8,104.1l-5.2,1.7
		c-6.2-15.6-16.4-30.8-17.7-46.7c-2.7-35.8-3.1-72.2,0.1-107.9c1.4-15.3,12.6-30.6,22-44c11.4-16.2,17.5-33,17.2-52.8
		c-0.1-9,2-17.9,6-25.9V401.1z"/>
	<path class="st0" d="M453.4,815.7c-108.3,0-214.5,0.1-320.6-0.3c-6.4,0-12.7-5-19.1-7.6c0.5-1.6,0.9-3.1,1.4-4.7
		c11.4,0,22.8-0.1,34.2,0c91.2,0.7,182.4,1.3,273.7,2.5c13.4,0.2,21-1.8,20.1-17.6c-0.6-11.4,1.5-23,2.5-34.6l4.3-0.2
		C451,774.3,452.2,795.5,453.4,815.7z"/>
	<path class="st0" d="M194.1,458v19c-0.4,69.6-0.8,139.2-1.3,208.8c-0.2,23.9-4.5,30.1-28.2,36.4c-15,4-30.3,6.8-45.7,8.5
		c-9.2,1-12.7,4.2-12.3,13.4c0.5,11.9,0.1,23.9,0.1,35.8l-5.2,0.1v-54c18.1-3,36.7-5.6,55.1-9.3c24.5-4.8,28.6-9.8,28.8-34.4
		c0.6-69.1,1-138.1,1.5-207.2V458H194.1z"/>
	<polygon class="st0" points="384.7,510.4 339.7,534.1 377.5,579.2 416.6,585.6 427,571.1 399.6,561.5 381.1,536.9 	"/>
</g>
</svg>
