<svg id="Layer_1" data-name="Layer 1" xmlns="http://www.w3.org/2000/svg" viewBox="0 0 582.64 803.66"><defs><style>.cls-1{fill:#bc9064;}</style></defs><path class="cls-1" d="M523,607.69c-51.71,30.79-102.95,41.86-157,9.38-1.44,4-3.25,6.74-3.29,9.48-.62,38.62-1.52,77.25-1.28,115.87.18,29.08,6.39,35.63,35.43,41.84,11.73,2.5,23.43,5.56,35.31,6.88,15.58,1.72,22.57,8.75,20.8,24.91-1.09,10-.2,20.17-.2,31.94H431.37c-.54-1-1.57-2.13-1.6-3.27-1.06-45.69-1-45.69-46.32-53.51-38.76-6.66-57.85-27.81-58.14-67.45-.4-53.86.28-107.73,1.2-161.57.49-28.77,8.72-36,37.81-38.09,22.1-1.58,44.11-4.5,66.24-5.9,12.56-.84,18.89-6.91,19.21-18.78.65-23.38.79-46.77.78-70.17,0-14.83-7.62-21.68-22.7-21.08-12,.46-24.08-.17-36.12-.45-50.13-1.14-66.16-16.17-67.41-65.33-.95-37.3-.23-74.64-.63-112-.19-18.07,7.26-30.37,24.74-35.88,48.91-15.4,97.74-14.3,144.37,6.54,13,5.82,25.53,20.07,31.06,33.45,10.34,25,15.61,52,22.59,78.29,7.49,28.1,25.15,39.07,52,28.79,6.48-2.5,13.31-14.15,13.39-21.64.67-61.43.18-122.87-.83-184.3-.34-19.36-11.53-29.18-32.46-29.56-28.45-.51-56.93.7-85.4.5-77.3-.53-154.61-1.72-231.92-2.05-53.8-.21-107.6,1.06-161.45.64-17.92-.14-26,7.22-25.76,24.45.14,10.11.53,20.25,1.61,30.29,1.33,12.31,8.76,16.84,21,16.31,40.36-1.72,65,16.8,75.7,55.69l-68.49-10.54c-24.13-3.71-36.18-15.33-38-39.7-1.66-21.44-1.9-43-1.56-64.55C64.7,93.85,69.24,90,92.85,90q189.15.42,378.3,1c40,.07,79.84-.5,119.76-.4,38.57.11,54.48,16.15,54.67,54.09q.55,104.57,1.25,209.09v19c-23.46,0-45.54,1.67-67.22-.53-17.94-1.83-28.41-15.32-32.87-32.68-4.89-19-10.82-37.85-13.87-57.16-5.82-37.22-29.84-55.57-64.08-59.47a293.46,293.46,0,0,0-77.25,1.83c-26.8,4.16-40.28,31.34-31.11,56.79,1.66,4.53,8.47,8.33,13.71,10.21,22.54,8.27,46.14,14,67.94,23.77,69.5,31.21,114.55,81.9,114,161.53-.22,33.76-8.88,67.51-14.15,101.19-6.4,41.17-17.94,81.74-10.6,124.22,5.18,30,28.6,54.33,55.95,56,19.37,1.16,25-4.71,22.06-24.46-1.9-13.19,1-24.36,15.63-24.89s18.31,11.84,18.53,24c.27,17.13-13.58,32.5-30.87,35.7-39.22,7.26-77.65-18-89.12-56.76-8.72-29.54-6.66-58.83-2.26-88.44C522,619.29,522.22,615.07,523,607.69ZM364.34,307.86c0,20.59-.35,41.22.1,61.82.47,21.73,5.91,27.25,28.19,29.19,18.88,1.66,37.85,2.19,56.7,4.09,21.63,2.2,36.23,14.39,37.24,35.92,1.74,37.05.48,74.25.48,113-9.35-.52-16.79-1.08-24.23-1.31-14.51-.45-29.12-1.89-43.54-.75-16,1.27-21.71,12.86-12.18,25,23.22,29.62,75.2,47.14,111.52,10.36,21.64-21.89,22.09-50.22,25.56-77.48C559.55,387.26,473.46,314.38,364.34,307.86Zm69.47,305.23c-26.41-9.37-37.07-31.91-47.33-57.67-11.23,18.94-6.4,33.23,2.2,45.93C399.13,616.8,415.27,618.39,433.81,613.09Z" transform="translate(-64.19 -90)"/><path class="cls-1" d="M98.75,803.92c31.88,2.4,58.76-4.24,82.7-22.37,4.56-3.46,11.32-5.32,17.16-5.54,19-.69,38,.3,57-.42,30.6-1.17,58.85,1.86,87.13,18,19.66,11.23,45.69,11.29,70.4,16.64v39.52H98.75Z" transform="translate(-64.19 -90)"/><path class="cls-1" d="M182.45,416l-11.38-14.63c-19.86,21.68-30.62,45-32.16,73.71,67-22.81,129.43-132.51,106.6-194.68-33.37,21.23-54.74-21.76-90.17-12.2,17.35-27.13,41.93-22.55,61.92-25.73-7.57-30.34-15-59.92-22.82-91.45,38.5,10.95,56,40.61,72.07,68.4l48.59-46.94,4.66,3.17c-5,20-8.64,40.51-15.57,59.83-3.13,8.69-11.78,19.84-19.71,21.53-21,4.45-19.6,17.47-19.65,33.29-.19,54.25-20.51,101.53-56.24,141.29-17.56,19.57-40,34.73-58.9,53.15-6.48,6.29-12.24,16.14-13.12,24.9-4.11,41,4.37,80.44,20.24,118.47l-5.9,1.92c-7-17.71-18.72-35.06-20.09-53.2C127.75,536,127.29,494.63,131,454c1.56-17.38,14.38-34.78,25.09-50.06,12.94-18.48,20-37.56,19.6-60a64.74,64.74,0,0,1,6.81-29.5Z" transform="translate(-64.19 -90)"/><path class="cls-1" d="M484.71,893.63c-123.27,0-244.09.16-364.91-.38-7.26,0-14.49-5.67-21.74-8.7l1.62-5.36c13,0,25.93-.09,38.89,0C242.39,880,346.21,880.62,450,882c15.29.2,23.91-2.06,22.91-20-.73-13,1.75-26.23,2.79-39.36l4.91-.26C482,846.49,483.4,870.61,484.71,893.63Z" transform="translate(-64.19 -90)"/><path class="cls-1" d="M182.94,480.66v21.57q-.67,118.85-1.42,237.68c-.2,27.23-5.12,34.23-32.1,41.42a356.77,356.77,0,0,1-52.06,9.73c-10.52,1.19-14.49,4.82-14,15.24.56,13.56.13,27.17.13,40.78l-6,.15v-61.4c20.65-3.42,41.8-6.41,62.74-10.54,27.86-5.48,32.53-11.14,32.79-39.18.72-78.59,1.14-157.19,1.66-235.78V480.66Z" transform="translate(-64.19 -90)"/><polygon class="cls-1" points="335.79 450.29 284.49 477.31 327.55 528.61 371.98 535.95 383.89 519.46 352.74 508.46 331.67 480.52 335.79 450.29"/></svg>