<?xml version="1.0" encoding="utf-8"?>
<!-- Generator: Adobe Illustrator 24.3.0, SVG Export Plug-In . SVG Version: 6.00 Build 0)  -->
<svg version="1.1" id="Layer_1" xmlns="http://www.w3.org/2000/svg" xmlns:xlink="http://www.w3.org/1999/xlink" x="0px" y="0px"
	 viewBox="0 0 1630 947.8" style="enable-background:new 0 0 1630 947.8;" xml:space="preserve">
<style type="text/css">
	.st0{fill:#B89B6A;}
</style>
<g>
	<path class="st0" d="M909.4,373.1c-33.7,20.1-67.2,27.3-102.4,6.1c-0.9,2.6-2.1,4.4-2.1,6.2c-0.4,25.2-1,50.4-0.8,75.6
		c0.1,19,4.2,23.3,23.1,27.3c7.7,1.6,15.3,3.7,23,4.5c10.1,1.1,14.7,5.7,13.6,16.3c-0.7,6.5-0.1,13.1-0.1,20.8h-14
		c-0.3-0.7-1-1.4-1-2.1c-0.7-29.8-0.7-29.8-30.2-34.9c-25.3-4.4-37.7-18.2-37.9-44c-0.2-35.1,0.2-70.3,0.8-105.4
		c0.3-18.8,5.7-23.5,24.7-24.8c14.4-1,28.8-2.9,43.2-3.9c8.2-0.5,12.3-4.5,12.5-12.3c0.4-15.2,0.5-30.5,0.5-45.8
		c0-9.7-5-14.2-14.8-13.8c-7.8,0.3-15.7-0.1-23.6-0.3c-32.7-0.8-43.2-10.6-44-42.6c-0.6-24.3-0.2-48.7-0.4-73
		c-0.1-11.8,4.7-19.8,16.1-23.4c31.9-10.1,63.8-9.3,94.2,4.3c8.5,3.8,16.6,13.1,20.2,21.8c6.7,16.3,10.2,33.9,14.7,51.1
		c4.9,18.3,16.4,25.5,33.9,18.8c4.2-1.6,8.7-9.2,8.7-14.1c0.4-40.1,0.1-80.2-0.6-120.2c-0.2-12.6-7.5-19-21.2-19.3
		c-18.6-0.3-37.1,0.5-55.7,0.3c-50.4-0.3-100.8-1-151.3-1.3c-35.1-0.1-70.2,0.7-105.3,0.4c-11.7-0.1-17,4.7-16.8,16
		c0.1,6.6,0.3,13.2,1,19.8c0.9,8,5.7,11,13.7,10.6c26.3-1.1,42.4,10.9,49.4,36.3l-44.7-6.9c-15.7-2.4-23.6-10-24.8-25.9
		c-1.1-14-1.2-28.1-1-42.1c0.2-15.2,3.2-17.7,18.6-17.7c82.3,0.2,164.6,0.4,246.8,0.6c26,0,52.1-0.3,78.1-0.3
		c25.2,0.1,35.5,10.5,35.7,35.3c0.2,45.5,0.5,90.9,0.8,136.4v12.4c-15.3,0-29.7,1.1-43.9-0.3c-11.7-1.2-18.5-10-21.4-21.3
		c-3.2-12.4-7.1-24.7-9-37.3c-3.8-24.3-19.5-36.2-41.8-38.8c-16.8-1.8-33.7-1.4-50.4,1.2c-17.5,2.7-26.3,20.4-20.3,37.1
		c1.1,3,5.5,5.4,9,6.7c14.7,5.4,30.1,9.1,44.3,15.5c45.3,20.4,74.7,53.4,74.4,105.4c-0.1,22-5.8,44-9.2,66
		c-4.2,26.9-11.7,53.4-6.9,81c3.4,19.6,18.7,35.4,36.5,36.5c12.6,0.8,16.3-3.1,14.4-16c-1.3-8.6,0.7-15.9,10.2-16.2
		c9.5-0.3,12,7.7,12.1,15.6c0.2,11.2-8.9,21.2-20.1,23.3c-25.6,4.7-50.7-11.7-58.1-37c-5.7-19.3-4.3-38.4-1.5-57.7
		C908.7,380.7,908.9,377.9,909.4,373.1z M805.9,177.5c0,13.4-0.2,26.9,0.1,40.3c0.3,14.2,3.9,17.8,18.4,19c12.3,1.1,24.7,1.4,37,2.7
		c14.2,1.4,23.6,9.4,24.3,23.4c1.1,24.2,0.3,48.4,0.3,73.7c-6.1-0.3-10.9-0.7-15.8-0.9c-9.5-0.3-19-1.2-28.4-0.5
		c-10.5,0.8-14.2,8.4-7.9,16.3c15.1,19.3,49.1,30.8,72.8,6.8c14.1-14.3,14.4-32.8,16.7-50.6C933.2,229.3,877.1,181.8,805.9,177.5z
		 M851.2,376.7c-17.2-6.1-24.2-20.8-30.9-37.6c-7.4,12.4-4.2,21.7,1.4,30C828.6,379.1,839.1,380.1,851.2,376.7z"/>
	<path class="st0" d="M632.6,501.2c20.8,1.6,38.3-2.8,54-14.6c3.3-2.3,7.2-3.5,11.2-3.6c12.4-0.5,24.8,0.2,37.2-0.3
		c20-0.8,38.4,1.2,56.8,11.8c12.8,7.3,29.8,7.4,45.9,10.9v25.8H632.5L632.6,501.2z"/>
	<path class="st0" d="M687.2,248l-7.4-9.5c-13,14.1-20,29.4-21,48.1c43.7-14.9,84.4-86.5,69.6-127c-21.8,13.9-35.7-14.2-58.8-8
		c11.3-17.7,27.4-14.7,40.4-16.8c-4.9-19.8-9.8-39.1-14.9-59.7c25.1,7.1,36.5,26.5,47,44.6l31.7-30.6c1,0.7,2,1.4,3,2.1
		c-3.3,13.1-5.6,26.4-10.1,39c-2,5.7-7.7,12.9-12.9,14c-13.7,2.9-12.8,11.4-12.8,21.7c-0.1,35.4-13.4,66.2-36.7,92.2
		c-11.5,12.8-26.1,22.7-38.4,34.7c-4.2,4.1-8,10.5-8.6,16.2c-2.7,26.7,2.9,52.4,13.2,77.3l-3.8,1.3c-4.6-11.6-12.2-22.9-13.1-34.7
		c-2-26.6-2.3-53.6,0.1-80.1c1-11.3,9.4-22.7,16.4-32.7c8.4-12.1,13-24.5,12.8-39.2c-0.1-6.7,1.5-13.3,4.4-19.2L687.2,248z"/>
	<path class="st0" d="M884.4,559.7c-80.4,0-159.2,0.1-238.1-0.3c-4.7,0-9.5-3.7-14.2-5.7l1-3.5c8.5,0,16.9-0.1,25.4,0
		c67.7,0.5,135.5,0.9,203.2,1.8c10,0.1,15.6-1.3,15-13.1c-0.5-8.5,1.1-17.1,1.8-25.7l3.2-0.2C882.6,528.9,883.5,544.7,884.4,559.7z"
		/>
	<path class="st0" d="M687.5,290.3v14.1c-0.3,51.7-0.6,103.4-0.9,155.1c-0.1,17.8-3.3,22.3-21,27c-11.1,2.9-22.5,5.1-33.9,6.3
		c-6.9,0.8-9.4,3.1-9.2,9.9c0.4,8.9,0.1,17.7,0.1,26.6l-3.9,0.1v-40.1c13.5-2.2,27.3-4.2,40.9-6.9c18.2-3.6,21.2-7.3,21.4-25.6
		c0.5-51.3,0.8-102.5,1.1-153.8v-12.8H687.5z"/>
	<polygon class="st0" points="829.1,329.2 795.6,346.8 823.7,380.3 852.7,385 860.5,374.3 840.2,367.1 826.4,348.9 	"/>
	<path class="st0" d="M121.2,774.2l44.6,115.1c1.8,4.3,3.8,7.3,5.8,9c2,1.7,3.8,2.6,5.4,2.8v3.7c-3.9-0.3-8.6-0.4-14.1-0.5
		c-5.5-0.1-11-0.1-16.7-0.1c-5.9,0-11.5,0-16.8,0.1c-5.3,0.1-9.5,0.2-12.7,0.5v-3.7c6.3-0.2,10.3-1.3,12-3.2c1.7-1.9,1.3-6-1.1-12.2
		l-30.6-83.6l3.7-5.5L73.9,866c-2.8,7.4-4.5,13.3-5.2,17.9s-0.3,8.1,0.9,10.5c1.2,2.4,3.3,4.3,5.8,5.2c3,1.1,6.3,1.6,9.5,1.7v3.7
		c-4.3-0.3-8.3-0.4-11.9-0.5c-3.6-0.1-7.5-0.1-11.7-0.1c-2.5,0-5,0-7.5,0.1c-2.2,0-4.4,0.2-6.5,0.5v-3.7c2.7-0.5,5.4-2.2,8.2-5.2
		s5.5-8,8.2-15.3l41.4-106.5c2.4,0.2,5.1,0.4,8,0.4C116.1,774.6,118.8,774.5,121.2,774.2z M130.8,851.8v3.7H75.9l1.8-3.7H130.8z"/>
	<path class="st0" d="M220.3,760.8v126.9c0,5.2,0.8,8.7,2.5,10.5c1.7,1.8,4.5,2.8,8.6,2.8v3.9c-2.3-0.1-5.9-0.3-10.7-0.5
		c-4.8-0.2-9.7-0.3-14.7-0.3c-4.9,0-9.9,0.1-15,0.3c-5.1,0.2-8.9,0.3-11.5,0.5V901c4,0,6.9-0.9,8.6-2.8s2.5-5.3,2.5-10.5V782.9
		c0-5.5-0.8-9.6-2.3-12.3c-1.5-2.6-4.5-4-8.8-4v-3.9c3.9,0.4,7.7,0.6,11.4,0.6c5.6,0,10.9-0.2,15.8-0.6
		C211.3,762.3,215.8,761.7,220.3,760.8z"/>
	<path class="st0" d="M341.3,774.4c-0.5,5.9-0.8,11.5-1,16.9c-0.2,5.4-0.3,9.6-0.3,12.5c0,2.7,0.1,5.2,0.2,7.6s0.2,4.4,0.4,6.1h-4.2
		c-1.8-9.8-4.4-17.6-7.6-23.3c-3.3-5.7-7-9.7-11.2-12.1c-4.3-2.3-9-3.5-13.9-3.5h-4.2c-2.6-0.1-5.2,0.2-7.7,0.8
		c-1.6,0.5-2.9,1.8-3.4,3.4c-0.7,2.6-0.9,5.4-0.8,8.1v92.9c0,4.8,0.5,8.4,1.5,10.9c1,2.5,3.2,4.3,5.9,4.8c4.2,0.9,8.4,1.3,12.7,1.3
		v4.1c-4-0.1-9.3-0.2-15.6-0.4c-6.4-0.1-13.1-0.2-20.1-0.2c-5.5,0-11,0.1-16.3,0.2c-5.3,0.1-10.3,0.2-14.9,0.4v-3.7
		c2.9-0.1,5.8-0.6,8.6-1.5c1.9-0.8,3.4-2.4,3.9-4.4c0.8-3.3,1.1-6.6,1-9.9V794c0-4.5-0.3-7.9-1-10c-0.5-2-2-3.6-3.9-4.4
		c-2.8-0.9-5.7-1.4-8.6-1.4v-3.7c5.3,0.1,10.8,0.2,16.7,0.3l17.4,0.2c5.8,0.1,11.1,0.1,16,0.1h12.2c5.6,0,12.1,0,19.2-0.1
		C329.3,774.9,335.7,774.7,341.3,774.4z M314.3,837.8v3.7h-32.4v-3.7H314.3z M319.3,813.5c-0.5,7-0.7,12.3-0.6,16
		c0.1,3.7,0.1,7.1,0.1,10.1s0.1,6.4,0.2,10.1c0.1,3.7,0.4,9,0.9,16h-4.2c-0.7-4.2-2-8.4-4-12.2c-1.8-3.5-4.5-6.6-7.8-8.8
		c-3.3-2.2-7.3-3.3-12.2-3.3v-3.7c3.3,0.1,6.5-0.7,9.4-2.3c2.7-1.5,5-3.5,6.9-6c1.9-2.4,3.5-5.1,4.7-7.9c1.2-2.6,2-5.3,2.6-8.1
		L319.3,813.5z"/>
	<path class="st0" d="M372.1,906.1c-5.6,0-10.3-1.1-14-3.2c-3.5-2-6.3-5-8.1-8.6c-1.7-3.6-2.6-7.5-2.6-11.4c0-5.2,1.2-9.4,3.6-12.7
		c2.4-3.4,5.6-6.1,9.3-8c3.8-2,7.8-3.7,12-5.1c4.2-1.4,8.2-2.7,12-4c3.3-1,6.4-2.6,9.2-4.6c2.2-1.6,3.5-4.2,3.5-6.9v-15.3
		c0-2.6-0.4-5.2-1.2-7.6c-0.8-2.3-2.3-4.4-4.3-5.8c-2-1.5-4.8-2.3-8.4-2.3c-2.2,0-4.3,0.3-6.4,0.9c-2,0.6-3.9,1.6-5.5,2.9
		c3.5,1,6.6,3.2,8.8,6.1c1.9,2.6,2.9,5.8,2.9,9c0,4.5-1.6,8.1-4.7,10.8c-3.1,2.6-7.1,4-11.1,4c-4.7,0-8.3-1.5-10.8-4.4
		c-2.5-3-3.9-6.8-3.8-10.7c-0.1-3.3,0.9-6.6,2.8-9.3c2.2-2.8,5-5.2,8.1-6.9c4-2.2,8.4-3.8,12.9-4.6c5.3-1,10.7-1.5,16-1.5
		c5.4,0,10.7,0.5,15.9,1.7c4.7,1.1,9,3.5,12.4,6.9c2.7,2.8,4.5,6.4,5.2,10.3c0.8,5.1,1.2,10.3,1.1,15.5v49.7c0,3.1,0.3,5.2,0.8,6.4
		c0.4,1.1,1.5,1.8,2.7,1.7c1.1,0,2.2-0.3,3.1-0.9c1-0.6,2-1.3,2.9-2l2.1,3.1c-2.8,2.3-6.1,4-9.6,5.1c-3.9,1.2-7.9,1.8-12,1.7
		c-4.9,0-8.7-0.6-11.5-1.9c-2.5-1.1-4.6-2.9-5.9-5.3c-1.2-2.3-1.8-4.8-1.9-7.4c-2.5,4.3-6,7.9-10.1,10.6
		C383.4,904.8,378.3,906.1,372.1,906.1z M387.4,892.9c1.8,0,3.6-0.4,5.3-1.2c1.8-1,3.2-2.4,4.3-4.1v-38.3c-1.1,1.8-2.4,3.5-4,4.9
		c-1.7,1.5-3.4,3.1-5.3,4.6c-1.9,1.6-3.6,3.3-5.2,5.1c-1.7,1.9-3.1,4.1-4.1,6.5c-1.1,2.9-1.6,6-1.6,9.1c0,4.8,1,8.2,2.9,10.3
		C381.8,891.8,384.6,893,387.4,892.9L387.4,892.9z"/>
	<path class="st0" d="M508.8,806.8c4.2,0,7.5,0.9,9.9,2.7c2.4,1.7,4.3,4.1,5.3,6.8c1.1,2.6,1.6,5.4,1.7,8.2c0,5-1.4,9.1-4.3,12.2
		c-2.9,3.1-7.1,4.8-11.3,4.6c-4.9,0-8.7-1.1-11.2-3.4c-2.6-2.3-4-5.7-3.9-9.1c-0.1-3.3,0.7-6.6,2.5-9.4c1.7-2.4,3.7-4.6,6.2-6.3
		c-1.8-0.3-3.7,0-5.3,0.7c-2,0.5-3.9,1.5-5.5,2.8c-1.7,1.4-3.2,3-4.4,4.8c-1.2,1.8-2.2,3.9-2.9,6c-0.7,2.1-1,4.3-1,6.5v51.9
		c0,5.9,1.3,9.9,4,12c2.6,2.1,6.8,3.1,12.6,3.1v3.9c-2.8-0.1-7-0.3-12.5-0.5c-5.5-0.2-11.2-0.3-17.1-0.3c-5.3,0-10.6,0.1-15.9,0.3
		c-5.3,0.2-9.3,0.3-11.9,0.5v-3.9c4,0,6.9-0.9,8.6-2.8s2.5-5.3,2.5-10.5v-58.2c0-5.5-0.8-9.6-2.4-12.3s-4.5-4-8.7-4v-3.9
		c3.9,0.4,7.7,0.6,11.4,0.6c5.5,0,10.8-0.2,15.8-0.7c4.6-0.4,9.2-1,13.7-1.9v15.1c1.4-3.1,3.4-5.9,5.8-8.3c2.4-2.3,5.2-4.2,8.3-5.4
		C501.8,807.5,505.3,806.8,508.8,806.8z"/>
	<path class="st0" d="M571.8,807.4v80.3c0,5.2,0.8,8.7,2.5,10.5c1.7,1.8,4.5,2.8,8.6,2.8v4c-2.3-0.1-5.9-0.3-10.8-0.5
		c-4.8-0.2-9.7-0.3-14.6-0.3c-4.9,0-9.9,0.1-15,0.3c-5.1,0.2-8.9,0.3-11.5,0.5V901c4.1,0,6.9-0.9,8.6-2.8c1.7-1.8,2.5-5.3,2.5-10.5
		v-58.3c0-5.5-0.8-9.6-2.3-12.3s-4.5-4-8.8-4v-3.9c3.9,0.4,7.7,0.6,11.4,0.6c5.5,0,10.8-0.2,15.7-0.7
		C562.7,808.9,567.3,808.3,571.8,807.4z M555.6,761.3c5.8,0,10.3,1.3,13.5,3.9c3.3,2.6,4.9,6.3,4.9,11.2c0,4.9-1.6,8.7-4.9,11.2
		c-3.3,2.6-7.8,3.9-13.5,3.9c-5.8,0-10.3-1.3-13.5-3.9s-4.9-6.3-4.9-11.2c0-4.9,1.6-8.7,4.9-11.2
		C545.3,762.6,549.8,761.3,555.6,761.3L555.6,761.3z"/>
	<path class="st0" d="M627.8,806.8c4.7-0.1,9.5,0.5,14,1.8c3,0.8,5.9,2,8.6,3.5c4.3,2.7,6.9,1,7.7-5.2h3.9
		c-0.2,3.6-0.4,7.8-0.6,12.8c-0.1,5-0.2,11.6-0.2,20h-3.9c-0.5-4.6-1.6-9.1-3.2-13.5c-1.5-4.2-4-7.9-7.3-11
		c-3.2-2.9-7.4-4.3-12.5-4.3c-3.1-0.1-6,1-8.4,2.9c-2.3,2-3.6,5-3.4,8.1c0,3.5,1.1,7,3.3,9.8c2.5,3.1,5.4,5.8,8.6,8.1
		c3.5,2.6,7,5.3,10.6,8.3c3.7,2.8,7.2,5.8,10.5,8.9c3,2.8,5.6,6.1,7.6,9.8c2,3.9,3,8.2,2.9,12.6c0.1,5.3-1.7,10.4-5,14.6
		c-3.5,4.3-8,7.7-13.1,9.8c-5.7,2.4-11.9,3.6-18.1,3.5c-3.6,0.1-7.1-0.3-10.6-1.2c-2.6-0.6-5.1-1.7-7.5-3c-1.8-0.9-3.5-1.6-4.9-2.2
		c-1.3-0.6-2.7-1-4.1-1.3c-1.3-0.1-2.5,0.5-3.1,1.7c-1,1.5-1.6,3.1-2,4.8h-3.8c0.2-3.9,0.4-8.7,0.6-14.4c0.1-5.7,0.2-13.1,0.2-22.5
		h3.9c0.6,6,2,11.9,4.1,17.5c1.7,4.6,4.5,8.7,8.2,11.9c3.4,2.9,7.7,4.4,12.2,4.3c2,0,4-0.4,5.8-1.2c1.8-0.8,3.3-2.1,4.4-3.8
		c1.2-2,1.8-4.3,1.7-6.6c0.2-5-1.7-9.9-5.2-13.6c-4-4.2-8.3-8.1-12.7-11.9c-3.9-3.3-7.6-6.6-11-9.8c-3.3-3.1-6.1-6.6-8.3-10.5
		c-2.2-3.9-3.3-8.4-3.2-12.9c-0.1-5.1,1.5-10.1,4.7-14.1c3.3-4,7.5-7,12.2-8.8C616.7,807.8,622.2,806.8,627.8,806.8z"/>
	<path class="st0" d="M820.6,774.4c-0.5,5.9-0.8,11.5-1,16.9c-0.2,5.4-0.3,9.6-0.3,12.5c0,2.7,0.1,5.2,0.2,7.6s0.2,4.4,0.4,6.1h-4.3
		c-1.8-9.8-4.4-17.6-7.6-23.3c-3.3-5.7-7-9.7-11.2-12.1c-4.3-2.3-9-3.5-13.9-3.5h-4.2c-2.6-0.1-5.2,0.2-7.7,0.8
		c-1.6,0.5-2.9,1.8-3.4,3.4c-0.7,2.6-0.9,5.4-0.8,8.1v92.9c0,4.8,0.5,8.4,1.5,10.9c1,2.5,3.2,4.3,5.9,4.8c4.2,0.9,8.4,1.3,12.7,1.3
		v4.1c-4-0.1-9.3-0.2-15.6-0.4c-6.4-0.1-13.1-0.2-20.1-0.2c-5.5,0-11,0.1-16.3,0.2c-5.3,0.1-10.3,0.2-14.8,0.4v-3.7
		c2.9-0.1,5.8-0.6,8.6-1.5c1.9-0.8,3.4-2.4,3.9-4.4c0.8-3.3,1.1-6.6,1-9.9V794c0-4.5-0.3-7.9-1-10c-0.5-2-2-3.6-3.9-4.4
		c-2.8-0.9-5.7-1.4-8.6-1.4v-3.7c5.3,0.1,10.8,0.2,16.7,0.3l17.4,0.2c5.8,0.1,11.1,0.1,16,0.1h12.2c5.6,0,12.1,0,19.2-0.1
		C808.6,774.9,815,774.7,820.6,774.4z M793.6,837.8v3.7h-32.4v-3.7H793.6z M798.5,813.5c-0.5,7-0.7,12.3-0.7,16
		c0.1,3.7,0.1,7.1,0.1,10.1s0.1,6.4,0.2,10.1c0.1,3.7,0.4,9,0.9,16h-4.2c-0.7-4.2-2-8.4-4-12.2c-1.8-3.5-4.5-6.6-7.8-8.8
		c-3.3-2.2-7.3-3.3-12.3-3.3v-3.7c3.3,0.1,6.5-0.7,9.4-2.3c2.7-1.5,5-3.5,6.9-6c1.9-2.4,3.5-5.1,4.7-7.9c1.2-2.6,2-5.3,2.6-8.1
		L798.5,813.5z"/>
	<path class="st0" d="M923.3,807.4v77.4c0,5.5,0.8,9.6,2.5,12.2c1.7,2.6,4.5,4,8.6,4v4c-3.8-0.4-7.6-0.6-11.4-0.6
		c-5.6,0-10.9,0.2-15.8,0.6c-4.6,0.3-9.2,1-13.7,2v-15c-2.6,5.2-6.8,9.4-12.1,11.9c-5.5,2.5-11.4,3.7-17.4,3.6c-5.4,0-9.7-0.7-13-2
		c-2.9-1.1-5.5-2.9-7.5-5.3c-2.1-2.6-3.6-5.6-4.2-8.9c-1-4.9-1.4-9.8-1.3-14.8v-46.8c0-5.5-0.8-9.6-2.4-12.3c-1.6-2.6-4.5-4-8.7-4
		v-3.9c3.9,0.4,7.7,0.6,11.4,0.6c5.6,0,10.9-0.2,15.8-0.7c4.6-0.4,9.1-1,13.6-1.9v77.7c-0.1,2.4,0.3,4.9,0.9,7.2
		c0.5,1.8,1.6,3.4,3.1,4.6c1.7,1.2,3.8,1.8,5.9,1.7c2.7,0,5.4-0.7,7.7-2.2c2.4-1.5,4.4-3.7,5.7-6.2c1.5-2.7,2.3-5.8,2.2-8.9v-51.8
		c0-5.5-0.8-9.6-2.4-12.3s-4.5-4-8.7-4v-3.9c3.9,0.4,7.7,0.6,11.4,0.6c5.6,0,10.9-0.2,15.8-0.7C914.2,808.9,918.8,808.3,923.3,807.4
		z"/>
	<path class="st0" d="M1007.2,806.8c4.2,0,7.5,0.9,9.9,2.7c2.4,1.7,4.3,4.1,5.3,6.8c1.1,2.6,1.6,5.4,1.7,8.2c0,5-1.4,9.1-4.3,12.2
		c-2.9,3.1-7.1,4.8-11.3,4.6c-4.9,0-8.7-1.1-11.2-3.4c-2.6-2.3-4-5.7-3.9-9.1c-0.1-3.3,0.7-6.6,2.5-9.4c1.6-2.5,3.7-4.6,6.2-6.3
		c-1.8-0.3-3.7,0-5.3,0.7c-2,0.5-3.9,1.5-5.5,2.8c-1.7,1.4-3.2,3-4.4,4.8c-1.2,1.8-2.2,3.9-2.9,6c-0.7,2.1-1,4.3-1,6.5v51.9
		c0,5.9,1.3,9.9,4,12c2.6,2.1,6.8,3.1,12.6,3.1v3.9c-2.8-0.1-7-0.3-12.5-0.5c-5.5-0.2-11.2-0.3-17.1-0.3c-5.3,0-10.6,0.1-15.9,0.3
		c-5.3,0.2-9.3,0.3-11.9,0.5v-3.9c4,0,6.9-0.9,8.6-2.8c1.7-1.8,2.5-5.3,2.5-10.5v-58.2c0-5.5-0.8-9.6-2.4-12.3c-1.6-2.6-4.5-4-8.7-4
		v-3.9c3.9,0.4,7.7,0.6,11.4,0.6c5.5,0,10.8-0.2,15.8-0.7c4.6-0.4,9.2-1,13.7-1.9v15.1c1.4-3.1,3.4-5.9,5.8-8.3
		c2.4-2.3,5.2-4.2,8.3-5.4C1000.3,807.5,1003.7,806.8,1007.2,806.8z"/>
	<path class="st0" d="M1099.9,806.8c5.4,0,9.7,0.7,13,2c2.9,1.1,5.4,2.9,7.5,5.2c2.1,2.6,3.6,5.7,4.3,9c1,4.9,1.5,9.9,1.4,14.9v49.7
		c0,5.2,0.8,8.7,2.5,10.5s4.5,2.8,8.6,2.8v3.9c-2.5-0.1-6.1-0.3-11-0.5c-4.9-0.2-9.5-0.3-14.1-0.3c-5,0-9.9,0.1-14.6,0.3
		c-4.7,0.2-8.2,0.3-10.5,0.5V901c3.4,0,5.8-0.9,7.2-2.8s2-5.3,2-10.5v-58.6c0-2.5-0.3-4.9-0.9-7.3c-0.5-1.8-1.6-3.5-3.1-4.6
		c-1.9-1.1-4.1-1.7-6.3-1.6c-2.8,0-5.5,0.7-7.8,2.2c-2.4,1.5-4.4,3.6-5.7,6.2c-1.4,2.8-2.2,5.8-2.1,8.9v54.7c0,5.2,0.7,8.7,2,10.5
		c1.3,1.8,3.7,2.8,7.2,2.8v3.9c-2.3-0.1-5.7-0.3-10.1-0.5c-4.4-0.2-8.9-0.3-13.5-0.3c-5,0-10.1,0.1-15.1,0.3
		c-5,0.2-8.8,0.3-11.4,0.5V901c4.1,0,6.9-0.9,8.6-2.8c1.7-1.8,2.5-5.3,2.5-10.5v-58.3c0-5.5-0.8-9.6-2.4-12.3c-1.6-2.6-4.5-4-8.7-4
		v-3.9c3.9,0.4,7.7,0.6,11.4,0.6c5.5,0,10.8-0.2,15.7-0.7c4.6-0.4,9.2-1,13.7-1.9v14.9c2.9-5.6,7-9.6,12.1-12
		C1087.8,807.9,1093.8,806.7,1099.9,806.8z"/>
	<path class="st0" d="M1184.3,807.4v80.3c0,5.2,0.8,8.7,2.5,10.5c1.7,1.8,4.5,2.8,8.6,2.8v4c-2.3-0.1-5.9-0.3-10.8-0.5
		c-4.9-0.2-9.7-0.3-14.6-0.3c-4.9,0-9.9,0.1-15,0.3c-5.1,0.2-8.9,0.3-11.5,0.5V901c4,0,6.9-0.9,8.6-2.8c1.7-1.8,2.5-5.3,2.5-10.5
		v-58.3c0-5.5-0.8-9.6-2.3-12.3c-1.5-2.6-4.5-4-8.8-4v-3.9c3.9,0.4,7.7,0.6,11.4,0.6c5.5,0,10.8-0.2,15.8-0.7
		C1175.1,808.9,1179.7,808.3,1184.3,807.4z M1168,761.3c5.8,0,10.3,1.3,13.5,3.9c3.2,2.6,4.9,6.3,4.9,11.2s-1.6,8.7-4.9,11.2
		c-3.2,2.6-7.8,3.9-13.5,3.9c-5.8,0-10.3-1.3-13.5-3.9c-3.2-2.6-4.9-6.3-4.9-11.2s1.6-8.7,4.9-11.2S1162.3,761.3,1168,761.3z"/>
	<path class="st0" d="M1242.8,779.4v30h19.9v3.7h-19.9v75.3c0,3.1,0.6,5.3,1.7,6.5c1.3,1.4,3.1,2.1,5,1.9c2.1-0.1,4.1-0.7,5.8-1.8
		c2.4-1.6,4.3-3.7,5.6-6.3l3,1.8c-2.1,4.8-5.5,9-9.7,12.2c-4.1,3.1-9.5,4.6-16.1,4.6c-3.7,0.1-7.3-0.5-10.8-1.6
		c-2.9-0.9-5.6-2.5-7.8-4.7c-2.7-2.7-4.6-6.2-5.3-10c-0.9-5.1-1.3-10.3-1.2-15.6v-62.4h-14.7v-3.7h14.7v-23c5.4,0,10.7-0.5,15.9-1.7
		C1233.8,783.6,1238.5,781.8,1242.8,779.4z"/>
	<path class="st0" d="M1361.8,807.4v77.4c0,5.5,0.8,9.6,2.5,12.2c1.7,2.6,4.5,4,8.6,4v4c-3.8-0.4-7.6-0.6-11.4-0.6
		c-5.6,0-10.9,0.2-15.7,0.6c-4.6,0.3-9.2,1-13.7,2v-15c-2.6,5.2-6.8,9.4-12,11.9c-5.5,2.5-11.4,3.7-17.4,3.6c-5.4,0-9.7-0.7-13-2
		c-2.9-1.1-5.5-2.9-7.5-5.3c-2.1-2.6-3.6-5.6-4.2-8.9c-1-4.9-1.4-9.8-1.3-14.8v-46.8c0-5.5-0.8-9.6-2.4-12.3s-4.5-4-8.7-4v-3.9
		c3.9,0.4,7.7,0.6,11.4,0.6c5.6,0,10.9-0.2,15.8-0.7c4.6-0.4,9.1-1,13.6-1.9v77.7c-0.1,2.4,0.3,4.9,0.9,7.2c0.5,1.8,1.6,3.4,3.1,4.6
		c1.7,1.2,3.8,1.8,5.9,1.7c2.7,0,5.4-0.7,7.7-2.2c2.4-1.5,4.4-3.7,5.7-6.2c1.5-2.7,2.3-5.8,2.2-8.9v-51.8c0-5.5-0.8-9.6-2.4-12.3
		c-1.6-2.6-4.5-4-8.7-4v-3.9c3.9,0.4,7.7,0.6,11.4,0.6c5.6,0,10.9-0.2,15.8-0.7C1352.8,808.9,1357.3,808.3,1361.8,807.4z"/>
	<path class="st0" d="M1445.8,806.8c4.2,0,7.5,0.9,9.9,2.7c2.4,1.7,4.3,4.1,5.3,6.8c1.1,2.6,1.6,5.4,1.7,8.2c0,5-1.4,9.1-4.3,12.2
		c-2.9,3.1-7.1,4.8-11.3,4.6c-4.9,0-8.7-1.1-11.2-3.4c-2.6-2.3-4-5.7-3.9-9.1c-0.1-3.3,0.7-6.6,2.5-9.4c1.7-2.5,3.7-4.6,6.2-6.3
		c-1.8-0.3-3.7,0-5.3,0.7c-2,0.5-3.9,1.5-5.5,2.8c-1.7,1.4-3.2,3-4.4,4.8c-1.2,1.8-2.2,3.9-2.9,6c-0.7,2.1-1,4.3-1,6.5v51.9
		c0,5.9,1.3,9.9,4,12c2.6,2.1,6.8,3.1,12.6,3.1v3.9c-2.8-0.1-7-0.3-12.5-0.5s-11.2-0.3-17.1-0.3c-5.3,0-10.6,0.1-15.9,0.3
		c-5.3,0.2-9.3,0.3-11.9,0.5v-3.9c4,0,6.9-0.9,8.6-2.8s2.5-5.3,2.5-10.5v-58.2c0-5.5-0.8-9.6-2.4-12.3s-4.5-4-8.6-4v-3.9
		c3.9,0.4,7.7,0.6,11.4,0.6c5.5,0,10.8-0.2,15.8-0.7c4.6-0.4,9.2-1,13.7-1.9v15.1c1.4-3.1,3.4-5.9,5.8-8.3c2.4-2.3,5.2-4.2,8.3-5.4
		C1438.9,807.5,1442.3,806.8,1445.8,806.8z"/>
	<path class="st0" d="M1512.5,806.8c10.8,0,19.3,3.2,25.4,9.6c6.1,6.4,9.2,16.9,9.2,31.5H1488l-0.2-3.5h34.3
		c0.3-5.6,0-11.1-0.7-16.7c-0.5-4.3-1.7-8.4-3.6-12.2c-1.7-3.1-3.8-4.6-6.5-4.6c-3.7,0-6.8,2.6-9.4,7.9s-4.2,14.2-4.8,26.9l0.7,1.3
		c-0.2,1.4-0.4,2.8-0.4,4.1v4.5c0,8.5,1.1,15.2,3.4,20.2c2.3,5,5.1,8.6,8.6,10.7c3.2,2,6.9,3.1,10.7,3.1c2.4,0,4.7-0.3,7-0.9
		c2.9-0.8,5.7-2.1,8.1-3.9c3.2-2.4,5.9-5.3,8.1-8.7l3.1,1.1c-1.5,5.1-3.8,9.8-6.9,14.1c-3.3,4.6-7.5,8.5-12.4,11.4
		c-5,3-11.1,4.5-18.2,4.5c-7.6,0.1-15-1.6-21.7-5.1c-6.4-3.4-11.4-8.7-15.2-16c-3.7-7.3-5.6-16.8-5.6-28.6c0-11.7,2-21.2,6.1-28.7
		c3.7-7.1,9.5-12.9,16.6-16.7C1496.2,808.6,1504.3,806.7,1512.5,806.8z"/>
	<path class="st0" d="M100.1,714.8c-8.8,0-15.7-3-20.7-8.9c-4.5-5.2-6.7-11.9-6.7-20.1v-11c0-3,1.7-5.7,4.3-7.1l15.2-8v25
		c0,4.1,0.9,7.1,2.6,8.8c1.7,1.7,4.5,2.6,8.5,2.6h50.7c3.9,0,6.7-0.9,8.4-2.6c1.7-1.8,2.5-4.7,2.5-8.7v-23.9c0-3,1.7-5.7,4.3-7.1
		l15.3-8v40.2c0,9.4-3,16.8-8.9,22.1c-5.2,4.6-11.8,6.9-19.9,6.8L100.1,714.8z M115,642.4c-2.8,0.1-5.5-0.9-7.5-2.9
		c-1.9-2-2.9-4.8-2.8-7.5c-0.1-2.7,0.9-5.4,2.8-7.3c2-1.9,4.7-2.9,7.5-2.8c5.2-0.4,9.7,3.4,10.1,8.6c0,0,0,0,0,0c0,0.5,0,1,0,1.5
		C125.1,638.9,121.8,642.4,115,642.4z M139,642.4c-2.8,0.1-5.5-0.9-7.5-2.8c-1.9-2.1-2.9-4.8-2.8-7.6c0-6.7,3.4-10.1,10.3-10.1
		c5.2-0.4,9.7,3.4,10.1,8.6c0,0,0,0,0,0c0,0.5,0,1,0,1.5C149.1,638.9,145.7,642.4,139,642.4L139,642.4z"/>
	<path class="st0" d="M241.1,714.8c-9.5,0-16.8-3-21.9-9c-4.5-5.2-6.7-11.9-6.7-20.1v-56c0-3.1,1.7-5.9,4.4-7.3l15.2-8v70.3
		c0,4,0.8,6.9,2.5,8.6c1.7,1.7,4.5,2.6,8.4,2.6h14v18.8H241.1z"/>
	<path class="st0" d="M247.6,714.8v-18.8h16.5c4,0,6.8-0.9,8.5-2.6c1.7-1.7,2.6-4.6,2.6-8.6v-15.6c0-3,1.7-5.8,4.3-7.2l15.3-8v30.8
		c0,4,0.8,6.9,2.5,8.6s4.5,2.6,8.4,2.6h10.6c3.9,0,6.7-0.9,8.4-2.6c1.7-1.7,2.5-4.6,2.5-8.6v-19.8c0-2.9,1.6-5.6,4.2-7l15.4-8.2v35
		c0,4,0.9,6.9,2.6,8.6c1.7,1.7,4.5,2.6,8.5,2.6h10.6c3.9,0,6.7-0.9,8.4-2.6c1.7-1.7,2.5-4.6,2.5-8.6v-23.9c0-3,1.7-5.7,4.3-7.1
		l15.3-8.1v40c0,9.2-2.8,16.5-8.4,21.8c-4.9,4.7-11.3,7.1-19.3,7.3h-15.3c-7.7,0-14-2.3-18.8-6.8c-4.5,4.5-10.4,6.7-17.7,6.8h-15.4
		c-7.7,0-13.9-2.3-18.8-6.8c-4.9,4.6-11.2,6.9-18.8,6.8L247.6,714.8z M324.2,631.9c-2.8,0.1-5.5-0.9-7.5-2.8c-1.9-2.1-3-4.8-2.8-7.6
		c-0.1-2.7,0.9-5.4,2.8-7.4c2-1.9,4.7-2.9,7.5-2.8c5.2-0.4,9.7,3.4,10.1,8.6c0,0,0,0,0,0c0,0.5,0,1,0,1.5
		C334.3,628.5,330.9,632,324.2,631.9L324.2,631.9z M336,609.1c-6.2,0-9.3-3.2-9.3-9.5c0-6.1,3.1-9.2,9.3-9.2
		c5.1,0.1,9.2,4.2,9.2,9.3C345.2,605.9,342.1,609.1,336,609.1L336,609.1z M348.1,631.9c-2.8,0.1-5.5-0.9-7.5-2.8
		c-1.9-2.1-2.9-4.8-2.8-7.6c-0.1-2.7,0.9-5.4,2.8-7.4c2-1.9,4.7-2.9,7.5-2.8c5.2-0.4,9.7,3.4,10.1,8.6c0,0,0,0,0,0c0,0.5,0,1,0,1.5
		C358.3,628.5,354.9,632,348.1,631.9L348.1,631.9z"/>
	<path class="st0" d="M461.3,714.4c0.4-1.6-0.5-3.1-2.1-3.5c0,0,0,0,0,0c-0.3-0.1-0.7-0.1-1-0.1c-2,0.2-4.1,0.3-6.1,0.3
		c-9.5,0-17.2-3.6-22.9-10.7c-4.7-6-7-13.3-7-21.8c0-11.4,3.1-20.4,9.3-26.9c5.5-5.8,12.8-8.7,21.8-8.7c9.2,0,16.4,3,21.6,8.9
		c4.5,5.1,6.7,11.7,6.7,19.9v33.3c0,12.3-3.2,21.9-9.6,28.9c-6,6.6-14.2,10-24.6,10c-6.1,0-12.2-1.6-17.6-4.4
		c-1-0.5-1.6-1.5-1.6-2.6v-10.5c0-1.6,1.3-2.9,2.9-2.9c0.4,0,0.8,0.1,1.1,0.2c4,1.8,8.4,2.7,12.8,2.8
		C453.8,726.6,459.2,722.5,461.3,714.4z M462.2,671.5c0-6.8-3-10.3-8.9-10.3c-3.5-0.1-6.8,1.6-8.8,4.5c-2.1,3-3.2,7.1-3.2,12.3
		c0,11,3.9,16.5,11.8,16.5c3.5,0,6.2-0.8,8.1-2.2c0.6-0.5,1-1.3,0.9-2.1L462.2,671.5z"/>
	<path class="st0" d="M557.3,695.9h14v18.8h-15.9c-3.3,0-6.6-0.4-9.8-1.4c-1.4,10-5.3,17.8-12,23.7c-6,5.2-13.7,7.9-21.6,7.8
		c-6.7,0-13.3-1.7-19.1-5v-12.3c0-1.7,1.3-3,3-3l0,0c0.4,0,0.8,0.1,1.2,0.2c3.7,1.6,7.7,2.4,11.7,2.5c5.7,0,10.1-1.8,13.3-5.5
		c3.2-3.7,4.7-8.8,4.7-15.3v-45.5c0-3,1.7-5.7,4.3-7.1l8.5-4.4l6.7-3.6v0.2l0.2-0.2v39.1c0,4,0.8,6.9,2.5,8.6
		C550.5,695.1,553.3,695.9,557.3,695.9z"/>
	<path class="st0" d="M636.2,695.9h24.6v18.8h-36.9c-4.2,0.1-8.4-0.3-12.4-1.1c-4.1,0.8-8.3,1.2-12.4,1.1h-37v-18.8h24.6
		c-3.8-5.7-5.8-12.4-5.9-19.3c0-10.4,3.1-18.7,9.2-25.1c5.5-5.7,12.7-8.6,21.6-8.6c10.2,0,18,3.7,23.6,11c4.7,6,7,13.5,7,22.6
		C642,683.5,639.9,690.2,636.2,695.9z M611.3,694.2c3.6-1.7,6.6-4.4,8.6-7.7c2.2-3.2,3.3-7.1,3.3-11c0-4.5-1.1-8-3.2-10.5
		c-2.1-2.5-5.3-4-8.6-3.8c-7.9,0-11.8,4.7-11.8,14.2c0,4,1.1,7.9,3.3,11.3C604.8,689.9,607.8,692.6,611.3,694.2z M611.3,631.9
		c-2.8,0.1-5.5-0.9-7.5-2.8c-1.9-2.1-2.9-4.8-2.8-7.6c-0.1-2.7,0.9-5.4,2.8-7.4c2-1.9,4.7-2.9,7.5-2.8c5.2-0.4,9.7,3.4,10.1,8.6
		c0,0,0,0,0,0c0,0.5,0,1,0,1.5C621.4,628.5,618,632,611.3,631.9L611.3,631.9z"/>
	<path class="st0" d="M750.4,695.9h13.8v18.8h-15.9c-7.5,0-13.6-1.9-18.4-5.8c-5.6,5.9-13,8.9-22.1,8.9c-9.3,0-16.7-3-22.1-8.9
		c-5,3.8-11.1,5.8-18.5,5.8h-15.9v-18.8h14c3.9,0,6.7-0.9,8.4-2.6c1.7-1.7,2.5-4.6,2.5-8.6v-4.5c0-12.1,3.2-21.6,9.5-28.3
		c5.5-5.9,12.9-8.9,22.1-8.9c10.5,0,18.6,3.8,24.3,11.5c4.7,6.5,7.1,15.1,7.1,25.7v4.5c0,4,0.9,6.9,2.6,8.6S746.4,695.9,750.4,695.9
		z M708,699c7.9,0,11.8-6.4,11.8-19.3c0-12.3-3.9-18.5-11.8-18.5c-8,0-12,6.2-12,18.5C696,692.6,699.9,699,708,699L708,699z"/>
	<path class="st0" d="M808.4,695.9h14v18.8h-15.8c-8.1,0-14.7-2.3-19.8-6.8c-5.7,4.6-12.7,6.9-21,6.8h-10.9v-18.8h9.8
		c4.8,0,8.2-1,10.2-3.1c2-2.1,3-5.6,3-10.6v-52.5c0-3,1.7-5.8,4.3-7.2l15.1-8.1v31.4l0.2-0.2v39.1c0,4,0.8,6.9,2.5,8.6
		S804.5,695.9,808.4,695.9z"/>
	<path class="st0" d="M813.1,714.8v-18.8h9.8c4.8,0,8.2-1,10.2-3.1c2-2.1,3-5.6,3-10.6v-52.6c0-3,1.6-5.7,4.3-7.2l15.2-8.1v68
		c0,10.1-3.1,18.1-9.2,24.1c-5.6,5.5-13.1,8.3-22.4,8.3L813.1,714.8z"/>
	<path class="st0" d="M1090.6,653.7l15.2-8v40c0,9.3-2.9,16.6-8.6,21.9c-5,4.7-11.5,7.1-19.6,7.2h-14.8c-7.7,0-13.9-2-18.8-6.1
		c-4.9,3.9-11,6-18.4,6.1h-14.9c-3.3,0-6.6-0.4-9.8-1.4c-1.7,9.5-7.1,18-15.1,23.5c-7.3,5-16.1,7.5-26.5,7.5
		c-14,0-24.8-4.9-32.5-14.8c-6-7.7-9.1-16.7-9.1-27.1c-0.1-6.2,1.2-12.3,3.8-17.9c1-2.2,3-3.8,5.4-4.3l15.2-3.2
		c-4,6.7-6.2,14.4-6.2,22.2c0,7.9,2.2,14.3,6.7,19.1c4.2,4.7,9.8,7,16.6,7c7.2,0,12.7-1.8,16.7-5.4c4-3.6,6-8.7,6-15.2V669
		c0-3,1.7-5.7,4.3-7.1l15.3-8v30.8c0,4,0.9,6.9,2.6,8.6c1.7,1.7,4.5,2.6,8.5,2.6h10.4c3.9,0,6.8-0.9,8.5-2.6
		c1.7-1.7,2.6-4.6,2.6-8.6v-19.9c0-2.9,1.6-5.6,4.1-6.9l15.3-8.2v35c0,4,0.9,6.9,2.6,8.6c1.7,1.7,4.5,2.6,8.5,2.6h10.6
		c3.9,0,6.8-0.9,8.5-2.6s2.6-4.6,2.6-8.6v-23.9C1086.3,657.8,1088,655.1,1090.6,653.7z"/>
	<path class="st0" d="M1161.8,705.1c0,12-3.3,21.8-10,29.3c-6.1,6.9-14.2,10.4-24.3,10.4c-6.7,0-13.3-1.7-19.1-5v-17.1
		c4.8,2.8,10.3,4.4,15.9,4.5c5.7,0,10.1-1.8,13.3-5.5c3.2-3.7,4.7-8.8,4.7-15.3v-45.7c0-2.8,1.5-5.4,4-6.7l15.4-8.3L1161.8,705.1z"
		/>
	<path class="st0" d="M1218.4,714.8c-9.4,0-16.8-3-21.9-9c-4.5-5.2-6.7-11.9-6.7-20.1v-56.1c0-3,1.7-5.8,4.3-7.2l15.3-8v70.3
		c0,4,0.8,6.9,2.5,8.6c1.7,1.7,4.5,2.6,137.6,2.6l20.8,1.2l-9.6,17.2L1218.4,714.8z"/>
	<path class="st0" d="M1428.3,695.9h24.6v18.8H1416c-4.2,0.1-8.4-0.3-12.4-1.1c-4.1,0.8-8.3,1.2-12.4,1.1l-40.9-0.4l-11.6-18.4h40
		c-3.8-5.7-5.8-12.4-5.9-19.3c0-10.4,3.1-18.7,9.2-25.1c5.5-5.7,12.7-8.6,21.6-8.6c10.2,0,18,3.7,23.6,11c4.7,6,7,13.5,7,22.6
		C1434.1,683.5,1432.1,690.2,1428.3,695.9z M1403.4,694.2c3.6-1.7,6.6-4.4,8.6-7.7c2.2-3.2,3.3-7.1,3.3-11c0-4.5-1.1-8-3.2-10.5
		c-2.1-2.5-5.3-4-8.6-3.8c-7.9,0-11.8,4.7-11.8,14.2c0,4,1.1,7.9,3.3,11.3C1397,689.9,1399.9,692.6,1403.4,694.2L1403.4,694.2z
		 M1403.4,631.9c-2.8,0.1-5.5-0.9-7.5-2.8c-1.9-2.1-2.9-4.8-2.8-7.6c-0.1-2.7,0.9-5.4,2.8-7.4c2-1.9,4.7-2.9,7.5-2.8
		c5.2-0.4,9.7,3.4,10.1,8.6c0,0,0,0,0,0c0,0.5,0,1,0,1.5C1413.5,628.5,1410.1,631.9,1403.4,631.9z"/>
	<path class="st0" d="M1452.9,714.8v-18.8h9.8c4.8,0,8.2-1,10.2-3.1c2-2.1,3-5.6,3-10.6v-52.6c0-3,1.6-5.7,4.3-7.1l15.2-8.1v68
		c0,10.1-3.1,18.1-9.2,24.1c-5.6,5.5-13.1,8.3-22.4,8.3L1452.9,714.8z"/>
	<path class="st0" d="M1507.9,714.8v-85.1c0-3,1.6-5.7,4.3-7.1l15.3-8.2v100.4H1507.9z"/>
</g>
</svg>
